<?xml version="1.0" standalone="no"?>
<!DOCTYPE svg PUBLIC "-//W3C//DTD SVG 20010904//EN"
 "http://www.w3.org/TR/2001/REC-SVG-20010904/DTD/svg10.dtd">
<svg version="1.0" xmlns="http://www.w3.org/2000/svg"
 width="854.000000pt" height="854.000000pt" viewBox="0 0 854.000000 854.000000"
 preserveAspectRatio="xMidYMid meet">
<metadata>
Created by potrace 1.14, written by Peter Selinger 2001-2017
</metadata>
<g transform="translate(0.000000,854.000000) scale(0.100000,-0.100000)"
fill="#000000" stroke="none">
<path d="M4196 8503 c-6 -6 -87 -22 -133 -25 -13 -1 -23 -5 -23 -8 0 -3 -9 -7
-20 -8 -43 -4 -50 -6 -50 -14 0 -4 -3 -7 -7 -6 -5 1 -18 -3 -30 -10 -13 -7
-23 -10 -23 -6 0 4 -9 -1 -20 -11 -11 -10 -28 -15 -40 -12 -11 3 -18 2 -15 -3
3 -4 -2 -13 -10 -20 -8 -7 -15 -10 -15 -6 0 8 -77 -40 -104 -65 -11 -11 -25
-19 -32 -19 -7 0 -18 -8 -23 -17 -6 -10 -11 -15 -11 -11 0 8 -52 -37 -118
-102 -24 -25 -48 -44 -53 -42 -5 1 -8 -4 -7 -10 2 -7 -3 -12 -9 -10 -7 1 -13
-3 -13 -9 0 -6 -6 -16 -12 -24 -7 -7 -24 -27 -38 -45 -14 -17 -35 -44 -48 -58
-13 -15 -30 -39 -40 -54 -9 -16 -20 -28 -24 -28 -4 0 -8 -6 -8 -14 0 -8 -4
-16 -9 -18 -5 -1 -30 -38 -56 -81 -27 -45 -51 -74 -57 -71 -6 4 -8 2 -4 -4 7
-11 -12 -62 -24 -62 -3 0 -12 -16 -19 -35 -7 -19 -17 -33 -22 -30 -5 3 -6 -1
-3 -9 3 -9 1 -16 -6 -16 -6 0 -9 -4 -6 -9 3 -5 -4 -21 -15 -35 -11 -15 -22
-33 -23 -40 -1 -8 -7 -20 -13 -27 -11 -14 -13 -19 -13 -40 0 -5 -5 -7 -12 -3
-8 5 -9 2 -5 -9 3 -9 -1 -23 -9 -32 -9 -8 -13 -15 -10 -15 4 0 -3 -18 -14 -40
-11 -22 -18 -40 -15 -40 4 0 -1 -10 -9 -22 -9 -12 -16 -30 -16 -40 0 -10 -5
-18 -12 -18 -6 0 -8 -3 -5 -6 3 -4 1 -16 -5 -28 -7 -11 -13 -30 -15 -40 -2
-11 -8 -25 -13 -31 -5 -7 -7 -15 -3 -18 3 -4 1 -7 -6 -7 -7 0 -9 -4 -6 -10 3
-5 2 -10 -4 -10 -5 0 -8 -9 -6 -20 2 -11 -1 -20 -6 -20 -5 0 -9 -6 -8 -12 2
-22 -13 -58 -22 -52 -5 3 -6 -1 -3 -9 2 -7 0 -25 -5 -39 -9 -24 -13 -25 -45
-18 -20 4 -36 6 -36 3 0 -3 -6 -1 -12 4 -7 6 -23 9 -36 8 -13 -1 -25 2 -27 6
-3 4 -14 5 -25 2 -12 -3 -20 0 -20 6 0 7 -5 9 -10 6 -6 -4 -17 -2 -25 5 -9 7
-15 8 -19 1 -5 -7 -15 -7 -31 -1 -14 5 -25 6 -25 2 0 -4 -5 0 -10 8 -8 12 -10
12 -10 1 0 -11 -3 -11 -15 -1 -8 7 -15 9 -15 5 0 -4 -7 -1 -17 6 -11 10 -17
11 -20 3 -3 -8 -15 -9 -38 -4 -19 4 -36 5 -39 2 -4 -3 -6 0 -6 7 0 9 -5 9 -20
1 -13 -7 -20 -7 -20 -1 0 6 -6 8 -14 5 -8 -3 -24 0 -36 6 -15 8 -20 8 -16 1
10 -15 -7 -14 -22 1 -9 9 -12 9 -12 1 0 -8 -9 -9 -30 -3 -16 5 -30 6 -30 2 0
-4 -5 0 -10 8 -8 12 -10 12 -10 1 0 -11 -3 -11 -15 -1 -11 9 -15 9 -15 1 0 -8
-6 -9 -18 -2 -11 6 -24 6 -35 0 -12 -7 -17 -6 -17 2 0 8 -4 8 -15 -1 -12 -10
-15 -10 -15 0 0 10 -3 10 -15 0 -12 -10 -15 -10 -15 0 0 10 -3 10 -15 0 -12
-10 -15 -10 -15 0 0 8 -4 9 -12 4 -16 -11 -39 -11 -56 -1 -7 5 -12 3 -12 -4 0
-8 -4 -8 -15 1 -11 9 -15 9 -15 1 0 -9 -5 -9 -20 -1 -11 6 -20 7 -20 3 0 -14
-50 -14 -51 0 0 6 -4 3 -9 -8 -6 -13 -9 -15 -9 -5 -1 13 -2 13 -11 0 -8 -12
-11 -13 -19 -1 -6 9 -11 10 -15 2 -4 -6 -12 -11 -17 -11 -6 0 -7 5 -3 11 3 6
-5 3 -20 -6 -20 -14 -26 -14 -26 -4 0 11 -2 11 -10 -1 -7 -11 -10 -11 -10 -2
0 10 -5 10 -21 2 -11 -7 -27 -9 -35 -6 -8 3 -14 1 -14 -5 0 -6 -5 -7 -10 -4
-6 4 -17 2 -25 -5 -10 -8 -15 -8 -20 1 -5 7 -10 8 -14 1 -3 -5 -19 -11 -36
-13 -16 -2 -35 -7 -41 -11 -7 -5 -16 -8 -20 -7 -5 1 -16 -1 -24 -4 -25 -10
-124 -37 -134 -36 -5 0 -12 -4 -16 -10 -3 -7 -20 -13 -37 -14 -17 -1 -29 -5
-27 -8 3 -5 -109 -61 -120 -60 -3 0 -18 -11 -32 -24 -15 -14 -32 -25 -38 -25
-6 0 -24 -14 -40 -30 -16 -16 -33 -27 -37 -24 -5 3 -9 -2 -9 -11 0 -12 -5 -15
-17 -11 -10 4 -15 4 -11 1 9 -10 -24 -45 -35 -38 -6 3 -7 2 -4 -4 7 -12 -28
-44 -39 -35 -4 4 -4 1 0 -6 5 -8 0 -21 -13 -33 -12 -11 -21 -24 -21 -30 0 -6
-5 -7 -10 -4 -6 4 -9 3 -8 -2 3 -13 -31 -73 -43 -73 -6 0 -7 -4 -4 -10 3 -5 1
-10 -6 -10 -7 0 -10 -3 -6 -6 3 -4 -1 -21 -10 -38 -10 -17 -18 -33 -18 -36 -1
-3 -7 -18 -13 -33 -7 -16 -12 -33 -12 -38 0 -6 -6 -7 -12 -3 -10 6 -10 5 0 -8
10 -12 10 -18 -2 -27 -8 -6 -12 -21 -9 -31 3 -11 1 -20 -3 -20 -5 0 -10 -24
-12 -52 -1 -29 -6 -56 -11 -61 -6 -6 -6 -19 -1 -33 7 -16 6 -24 -1 -24 -8 0
-7 -5 1 -15 10 -12 10 -15 0 -15 -10 0 -10 -3 0 -15 10 -12 10 -15 0 -15 -10
0 -10 -3 0 -15 9 -11 9 -15 1 -15 -7 0 -9 -5 -5 -12 11 -18 12 -48 2 -54 -5
-3 -5 -11 1 -18 6 -7 12 -36 13 -64 2 -29 6 -52 10 -52 3 0 5 -8 3 -17 -1 -10
3 -32 10 -49 10 -24 10 -35 2 -44 -7 -8 -8 -10 -1 -7 10 6 41 -87 35 -107 -1
-5 3 -12 9 -16 6 -4 12 -20 13 -37 1 -17 6 -31 12 -30 5 1 9 -5 10 -13 0 -8
10 -35 20 -60 11 -25 19 -48 17 -52 -1 -5 2 -8 7 -8 5 0 12 -14 16 -30 4 -17
12 -36 18 -43 7 -7 18 -23 25 -36 11 -19 11 -22 0 -15 -10 6 -11 5 -1 -8 7 -8
9 -19 5 -23 -4 -5 -2 -6 4 -2 9 5 45 -48 44 -66 0 -4 4 -13 10 -20 18 -21 61
-88 63 -99 1 -6 12 -22 25 -36 12 -14 20 -27 18 -29 -2 -3 4 -13 15 -24 11
-11 17 -24 14 -29 -4 -6 1 -10 10 -10 9 0 13 -4 10 -10 -3 -5 -1 -10 4 -10 6
0 11 -6 11 -14 0 -8 7 -17 16 -20 8 -3 12 -10 9 -16 -3 -5 -1 -10 4 -10 6 0
11 -7 11 -16 0 -8 4 -12 10 -9 5 3 10 1 10 -4 0 -6 8 -20 18 -30 30 -34 42
-50 42 -57 0 -4 10 -15 22 -25 11 -11 18 -19 15 -19 -4 0 6 -13 21 -29 43 -45
62 -70 62 -82 0 -5 5 -7 10 -4 5 3 10 2 10 -4 0 -6 12 -22 27 -38 16 -15 27
-31 25 -36 -1 -5 7 -11 18 -14 21 -6 37 -44 25 -63 -4 -6 -14 -9 -24 -5 -12 5
-13 3 -4 -5 12 -13 8 -20 -47 -79 -14 -16 -34 -40 -45 -56 -11 -15 -32 -40
-47 -56 -14 -15 -23 -30 -20 -33 3 -3 0 -6 -6 -6 -7 0 -12 -7 -12 -16 0 -8 -4
-12 -10 -9 -5 3 -12 -6 -16 -20 -3 -14 -10 -25 -16 -25 -5 0 -6 -6 -1 -12 4
-7 9 -22 11 -33 3 -23 21 -42 42 -47 8 -2 23 -11 32 -21 9 -10 20 -17 23 -16
13 4 44 -25 38 -34 -4 -6 -1 -7 7 -2 8 5 17 2 24 -7 17 -22 40 -27 61 -12 10
8 16 14 12 14 -5 0 -2 6 5 14 7 8 17 11 22 8 5 -3 6 0 2 7 -5 7 3 24 19 41 66
71 75 81 75 86 0 10 96 114 105 114 12 0 124 -118 118 -124 -4 -3 -1 -6 5 -6
19 0 62 -42 55 -53 -3 -6 -1 -7 5 -3 7 4 12 2 12 -3 0 -6 5 -11 11 -11 6 0 33
-21 60 -47 27 -27 70 -66 94 -88 25 -22 64 -57 85 -78 22 -21 40 -35 40 -32 0
3 10 -4 23 -17 13 -13 38 -34 57 -48 18 -14 45 -37 60 -52 16 -15 31 -24 34
-21 3 3 8 -2 12 -11 3 -9 10 -16 15 -16 5 0 18 -8 29 -17 10 -10 30 -28 44
-40 13 -12 27 -19 30 -16 3 3 8 -2 12 -11 3 -9 12 -16 19 -16 7 0 16 -7 19
-16 4 -9 9 -14 12 -11 9 8 33 -16 26 -27 -3 -5 0 -6 6 -2 6 3 17 -1 25 -9 9
-8 20 -15 26 -15 6 0 18 -14 27 -31 11 -23 12 -29 2 -23 -10 6 -11 5 -1 -7 9
-11 9 -19 2 -26 -8 -8 -8 -13 0 -17 6 -4 11 -27 11 -52 0 -24 5 -44 10 -44 7
0 8 -6 1 -17 -5 -10 -5 -26 0 -41 5 -13 10 -42 11 -63 1 -22 5 -42 10 -45 5
-3 4 -12 -3 -20 -7 -8 -7 -14 -1 -14 14 0 22 -38 8 -44 -7 -3 -7 -5 2 -5 7 -1
10 -5 7 -11 -3 -5 -1 -18 5 -29 7 -14 7 -22 0 -26 -7 -4 -8 -11 -1 -18 5 -7
11 -23 13 -37 1 -14 8 -28 13 -32 6 -5 5 -8 -3 -8 -8 0 -10 -5 -5 -13 9 -15
12 -30 15 -79 2 -21 6 -38 10 -38 3 0 5 -14 4 -31 -1 -16 2 -33 7 -36 4 -3 6
-11 3 -19 -3 -8 -1 -14 3 -14 5 0 8 -8 6 -17 -1 -10 2 -26 7 -35 5 -10 11 -37
14 -60 4 -24 11 -49 18 -57 9 -12 8 -13 -4 -6 -13 8 -13 7 -1 -8 7 -9 10 -17
6 -17 -4 0 -2 -6 4 -14 6 -7 9 -21 5 -30 -3 -9 -2 -16 3 -16 5 0 10 -8 11 -18
3 -29 7 -47 14 -57 6 -10 11 -57 9 -83 -1 -7 -5 -10 -11 -7 -5 3 -10 1 -10 -6
0 -9 -3 -9 -14 0 -10 8 -16 9 -21 1 -3 -6 -10 -8 -15 -5 -5 3 -12 0 -15 -5 -5
-7 -12 -5 -21 7 -11 13 -14 14 -12 3 2 -10 -5 -15 -24 -14 -15 0 -25 -3 -23
-7 3 -4 -8 -7 -23 -7 -25 0 -38 -2 -118 -16 -18 -3 -54 -7 -82 -8 -28 -1 -49
-5 -47 -8 2 -4 -2 -7 -10 -7 -8 0 -15 3 -15 6 0 3 -11 6 -24 6 -13 0 -22 -4
-19 -9 3 -5 -6 -7 -21 -4 -14 3 -26 1 -26 -3 0 -5 -11 -4 -25 1 -18 7 -25 6
-25 -3 0 -8 -4 -7 -10 3 -5 8 -10 10 -10 5 0 -6 -18 -10 -40 -8 -22 1 -40 -3
-40 -8 0 -6 -6 -6 -18 0 -13 7 -23 6 -30 -1 -9 -9 -12 -8 -12 3 0 12 -2 12
-10 -1 -8 -12 -10 -12 -10 -1 0 11 -3 11 -15 1 -12 -10 -15 -10 -15 0 0 9 -3
10 -13 1 -10 -8 -17 -7 -25 1 -9 9 -12 9 -12 -1 0 -10 -4 -10 -12 -3 -7 6 -39
10 -71 9 -31 -1 -57 0 -57 3 0 3 -17 6 -38 6 -52 2 -172 18 -179 24 -5 4 -15
6 -65 14 -29 5 -45 12 -41 19 3 6 1 7 -5 3 -7 -4 -18 -4 -24 1 -7 4 -24 9 -38
11 -13 2 -27 8 -31 14 -3 5 -9 9 -13 7 -13 -4 -75 24 -71 32 3 4 -3 5 -13 2
-10 -2 -24 3 -31 11 -8 9 -19 16 -25 16 -9 0 -29 14 -84 60 -6 6 -12 8 -12 5
0 -3 -20 15 -45 39 -25 25 -45 50 -45 55 0 5 -7 12 -16 15 -8 3 -13 10 -10 15
3 5 -1 11 -9 15 -8 3 -15 12 -15 21 0 8 -5 15 -11 15 -5 0 -8 4 -5 9 4 5 2 11
-3 13 -5 1 -11 10 -13 18 -2 8 -6 18 -10 21 -5 3 -9 17 -10 32 -1 15 -6 27
-10 27 -4 0 -8 12 -8 26 0 14 -5 35 -11 46 -9 16 -8 19 2 13 8 -6 10 -4 3 6
-13 22 -22 109 -10 109 6 0 5 5 -2 12 -16 16 -15 31 1 22 8 -5 8 -2 -2 9 -7 9
-9 17 -4 17 4 0 7 17 5 38 -4 37 -6 39 -39 40 -19 1 -42 7 -51 14 -13 11 -14
11 -7 -2 6 -12 5 -13 -6 -2 -7 6 -24 12 -37 12 -13 0 -20 4 -17 10 3 5 0 7 -8
4 -8 -3 -21 1 -28 8 -8 7 -21 14 -29 16 -8 2 -17 8 -18 13 -2 5 -8 7 -13 3 -5
-3 -9 0 -9 7 0 8 -7 6 -19 -5 -12 -11 -17 -27 -15 -47 2 -18 0 -28 -6 -24 -7
4 -7 -3 0 -19 5 -14 6 -26 2 -26 -4 0 -7 -16 -6 -35 1 -19 -3 -35 -8 -35 -6 0
-5 -6 2 -15 10 -12 10 -15 0 -15 -10 0 -10 -3 0 -15 10 -12 10 -15 0 -15 -9 0
-9 -4 -2 -12 12 -16 19 -89 9 -105 -4 -6 -2 -15 4 -18 5 -4 8 -13 5 -21 -3 -8
-1 -14 3 -14 5 0 8 -15 7 -34 -1 -19 2 -32 5 -30 9 5 21 -25 14 -36 -3 -5 -1
-11 5 -15 6 -4 8 -11 5 -16 -4 -5 -1 -9 5 -9 6 0 8 -4 5 -10 -3 -5 -1 -10 4
-10 6 0 10 -3 9 -7 -3 -16 15 -63 24 -63 6 0 8 -11 6 -24 -3 -17 -1 -23 8 -19
7 2 15 -4 18 -15 4 -11 20 -37 36 -57 16 -21 27 -42 23 -48 -3 -5 -2 -7 4 -4
11 7 45 -28 36 -37 -4 -3 -1 -6 6 -6 6 0 29 -17 49 -38 21 -21 45 -41 55 -45
11 -4 15 -12 11 -18 -4 -8 -3 -9 4 -5 7 4 12 2 12 -3 0 -6 6 -11 13 -11 7 0
23 -9 35 -20 12 -11 25 -20 30 -20 4 0 19 -10 32 -23 14 -12 26 -21 27 -19 10
8 33 0 27 -10 -4 -6 -3 -8 3 -5 6 4 19 0 29 -8 10 -8 27 -15 37 -15 9 0 17 -4
17 -8 0 -5 6 -9 13 -10 22 -2 42 -7 54 -15 7 -5 23 -10 35 -12 12 -3 24 -8 27
-12 3 -5 15 -9 26 -10 38 -3 79 -14 94 -26 12 -10 13 -9 6 3 -7 12 -6 13 6 3
8 -7 24 -12 34 -12 40 -1 55 -5 55 -13 0 -5 5 -6 10 -3 6 4 17 2 25 -5 9 -7
15 -8 19 -1 4 7 15 7 30 1 13 -5 27 -6 30 -3 3 4 6 1 6 -7 0 -10 3 -10 14 -1
8 7 16 8 19 4 3 -4 58 -10 124 -11 65 -2 126 -8 137 -14 11 -6 16 -6 13 0 -4
5 7 9 23 8 17 -1 30 -5 30 -9 0 -4 9 -3 20 3 12 6 20 7 20 1 0 -6 11 -6 30 -1
20 6 30 5 30 -2 0 -7 4 -7 13 1 8 6 17 8 20 4 4 -3 7 0 7 8 0 11 2 11 10 -1 5
-8 10 -10 10 -4 0 8 13 9 40 4 22 -4 40 -4 40 -1 0 4 12 6 28 5 15 -1 33 3 40
9 8 6 12 6 12 -2 0 -9 5 -9 20 -1 13 7 20 7 20 1 0 -7 9 -7 27 0 14 5 32 8 40
5 7 -3 13 0 13 7 0 8 4 6 10 -3 5 -8 10 -10 10 -4 0 6 14 10 30 9 17 -1 33 2
35 6 3 4 16 6 30 4 14 -1 25 1 25 5 0 5 8 6 19 3 10 -3 22 0 26 7 5 8 10 8 21
-1 8 -6 14 -7 14 -2 0 5 6 10 13 11 6 0 29 2 50 3 21 1 40 6 43 10 2 4 20 6
39 4 19 -2 32 1 29 6 -9 15 13 10 26 -6 7 -8 9 -15 5 -15 -4 0 -1 -8 6 -17 12
-14 12 -16 -1 -9 -9 4 -8 2 2 -7 10 -8 15 -17 12 -20 -3 -3 -2 -12 2 -19 5 -7
9 -17 10 -23 4 -24 9 -40 14 -45 7 -7 32 -73 33 -87 0 -7 5 -13 10 -13 5 0 6
-7 3 -16 -4 -10 -2 -13 6 -8 7 5 9 -1 6 -19 -3 -15 -1 -24 3 -21 8 5 13 -10
10 -28 0 -5 3 -8 9 -8 5 0 10 -9 10 -19 0 -11 5 -23 11 -26 6 -4 8 -13 5 -21
-3 -8 -1 -14 4 -14 9 0 26 -39 22 -52 -1 -5 2 -8 6 -8 5 0 15 -18 22 -40 7
-22 17 -40 21 -40 4 0 6 -9 4 -20 -2 -11 0 -18 4 -15 10 5 25 -23 30 -53 0 -5
10 -19 21 -32 11 -12 17 -26 15 -30 -3 -5 -1 -10 4 -12 5 -1 11 -10 13 -18 2
-8 11 -23 21 -34 10 -11 15 -26 12 -34 -2 -7 -1 -11 3 -8 5 3 16 -11 27 -30
10 -19 21 -34 25 -34 7 0 12 -13 18 -42 1 -5 11 -17 22 -28 12 -12 18 -26 14
-32 -4 -7 -3 -8 4 -4 11 7 17 -6 13 -27 -1 -5 2 -6 6 -4 5 3 14 -1 21 -9 7 -8
10 -14 6 -14 -4 0 1 -9 12 -20 29 -29 45 -50 39 -50 -2 0 9 -13 25 -29 17 -15
30 -33 30 -39 0 -5 7 -13 16 -16 9 -3 12 -11 8 -18 -4 -7 -4 -10 0 -6 9 8 62
-42 58 -55 -1 -5 1 -7 5 -4 11 6 83 -70 75 -79 -4 -4 -2 -4 5 0 7 4 27 -9 47
-29 20 -20 36 -33 36 -30 0 3 6 1 13 -5 46 -39 62 -50 78 -55 11 -4 16 -11 13
-17 -4 -7 -2 -8 5 -4 6 4 18 0 27 -8 9 -9 19 -14 24 -11 4 3 13 -2 20 -10 7
-8 19 -15 27 -15 8 0 11 -5 7 -12 -4 -6 -3 -8 4 -4 6 3 23 1 39 -5 15 -6 28
-9 29 -7 0 2 8 -3 17 -10 9 -8 21 -11 26 -8 5 4 12 2 16 -4 3 -5 15 -10 26
-10 10 0 19 -3 19 -7 0 -5 10 -9 23 -9 67 -5 97 -10 97 -16 0 -4 12 -3 27 3
19 7 29 7 31 0 2 -6 8 -11 13 -11 6 0 7 5 3 11 -5 8 -1 8 13 0 14 -7 23 -7 32
2 9 9 14 9 20 -2 7 -11 9 -11 14 0 4 10 6 10 6 2 1 -9 8 -10 24 -4 12 4 32 7
45 6 12 -1 22 1 22 5 0 3 12 5 28 5 15 -1 32 3 39 8 7 5 18 5 24 1 8 -4 9 -3
5 4 -7 11 -2 13 44 17 8 0 22 5 30 10 39 24 79 42 73 31 -4 -6 1 -4 11 4 23
18 56 38 79 46 9 3 17 11 17 16 0 5 4 7 8 4 5 -3 21 6 36 19 16 14 33 22 39
18 6 -3 7 -1 3 5 -4 7 -3 12 2 12 5 0 21 11 36 25 14 13 26 22 26 18 0 -3 14
10 32 28 17 19 35 33 40 31 4 -1 7 2 6 7 -2 5 2 10 7 11 6 1 14 8 18 16 5 8
13 11 19 8 6 -4 8 -3 5 3 -8 12 51 79 65 75 5 -1 7 2 4 7 -8 12 18 33 29 23 5
-4 5 -2 1 5 -4 7 3 22 16 35 13 13 23 25 23 28 0 5 28 40 53 65 6 8 12 18 12
24 0 6 3 11 8 11 4 0 16 16 26 35 11 19 23 35 28 35 5 0 6 5 3 10 -3 6 1 13 9
16 9 3 16 11 16 16 0 6 8 17 18 25 11 10 12 12 2 8 -9 -4 -8 -1 3 8 10 9 18
19 18 24 -1 4 5 15 13 24 8 9 17 26 21 38 3 12 11 21 16 21 6 0 8 4 5 9 -3 5
3 20 14 33 11 14 16 28 13 32 -3 3 -2 6 4 6 6 0 14 11 17 25 4 17 11 23 19 19
7 -4 9 -4 5 1 -4 4 -1 20 8 36 8 16 15 32 15 36 0 5 7 12 15 16 8 5 12 12 9
17 -3 4 7 32 22 62 15 29 28 55 29 58 0 3 6 18 12 33 7 16 12 33 12 38 0 5 5
9 12 9 6 0 8 3 5 6 -3 4 -1 16 5 28 7 11 13 26 13 31 1 6 6 9 13 8 6 -2 9 4 6
12 -3 8 1 28 10 46 9 17 13 35 10 40 -3 5 2 12 10 15 9 3 13 10 11 15 -3 5 1
21 9 37 8 16 12 32 9 36 -4 3 -1 6 5 6 7 0 11 3 10 8 -1 4 1 16 5 28 6 16 14
20 34 18 14 -1 30 -9 34 -16 7 -10 9 -10 9 2 0 9 3 11 8 5 4 -5 18 -11 32 -12
54 -5 70 -8 70 -13 0 -3 26 -7 58 -9 118 -7 127 -7 127 9 0 8 3 20 7 25 4 6 3
17 -2 25 -5 9 -4 20 3 29 10 12 9 13 -3 6 -13 -8 -13 -7 -1 8 10 13 10 17 1
17 -8 0 -9 6 -5 18 4 9 7 26 7 37 -1 10 4 25 10 32 8 10 7 13 -3 13 -11 0 -11
2 1 10 8 5 11 10 6 10 -5 0 -2 8 5 17 10 11 10 14 2 9 -9 -4 -13 -1 -13 9 0
11 -5 15 -14 12 -7 -3 -17 -2 -22 3 -5 4 -25 10 -45 13 -20 2 -42 8 -48 11 -6
4 -11 2 -11 -5 0 -10 -3 -10 -12 -1 -7 7 -25 12 -40 12 -16 0 -28 6 -28 13 0
9 -2 9 -9 -1 -7 -11 -11 -11 -22 1 -8 7 -20 12 -26 10 -7 -3 -11 4 -10 16 1
12 5 21 9 21 4 0 7 3 7 8 -1 4 0 9 1 12 1 3 3 13 5 24 2 10 9 41 16 70 7 28
13 53 14 56 0 3 3 10 6 15 4 6 5 20 4 33 -1 12 3 22 8 22 6 0 7 3 4 7 -4 3 -2
12 4 20 9 10 8 13 -2 13 -10 0 -10 3 -1 12 7 7 12 25 12 41 0 15 3 26 8 24 4
-3 7 12 6 34 0 21 3 39 7 39 4 0 6 10 4 22 -3 12 0 27 6 34 6 7 8 18 4 24 -3
5 -3 10 2 10 4 0 9 12 9 28 3 58 11 94 24 102 10 6 10 8 0 12 -10 3 -10 9 -2
24 6 11 9 32 8 47 -2 15 1 27 6 27 5 0 6 5 3 10 -4 6 -1 17 5 25 10 11 10 15
1 15 -7 0 -9 5 -5 12 4 6 9 27 11 47 6 53 11 79 18 91 3 5 1 10 -6 10 -8 0 -8
4 1 15 7 8 10 24 7 35 -3 11 -2 20 2 20 4 0 6 13 5 30 -1 16 3 30 8 30 6 0 5
6 -2 15 -7 8 -9 15 -4 15 5 0 10 14 10 32 1 23 10 40 35 60 18 15 39 28 47 28
7 0 10 5 7 10 -3 6 -2 10 3 10 5 0 22 11 37 24 16 14 33 22 38 19 6 -3 7 -1 3
5 -4 7 -3 12 2 12 5 0 18 8 30 18 11 10 33 27 47 38 14 10 40 31 57 46 17 15
35 25 41 21 6 -3 7 -1 3 5 -8 13 28 35 39 24 5 -4 6 -2 2 4 -3 5 6 19 20 30
15 10 32 24 38 31 7 7 15 9 19 6 3 -4 6 1 6 10 0 10 5 17 10 17 6 0 24 14 40
30 17 18 35 28 42 24 6 -4 8 -3 5 2 -6 11 75 94 91 94 6 0 13 7 16 16 3 8 11
12 17 8 7 -4 9 -3 6 3 -7 12 28 44 39 35 4 -4 4 -2 1 4 -3 6 15 28 40 50 25
21 73 66 107 99 58 58 83 72 89 50 1 -5 14 -21 29 -36 15 -14 25 -29 21 -32
-3 -4 2 -7 11 -7 13 0 16 -5 12 -17 -4 -10 -4 -14 0 -11 6 7 34 -15 34 -27 0
-3 10 -16 23 -29 12 -12 31 -35 42 -50 11 -16 26 -34 33 -42 7 -8 10 -14 6
-14 -4 0 1 -7 12 -15 10 -8 16 -15 13 -15 -4 0 8 -16 27 -37 18 -20 31 -40 28
-45 -3 -4 -1 -8 4 -8 11 0 97 -131 94 -143 -1 -4 3 -7 8 -7 6 0 10 -7 10 -15
0 -8 4 -15 9 -15 5 0 15 -15 22 -32 7 -18 19 -39 26 -46 7 -8 11 -18 8 -23 -4
-5 -1 -9 4 -9 6 0 11 -7 11 -15 0 -8 5 -15 11 -15 6 0 8 -7 5 -16 -3 -8 -2
-12 3 -9 9 5 27 -32 23 -47 -1 -5 2 -8 6 -8 9 0 37 -70 34 -82 -1 -5 3 -8 8
-8 6 0 10 -9 10 -20 0 -11 5 -20 11 -20 5 0 7 -5 4 -10 -3 -6 -1 -10 6 -10 7
0 10 -3 7 -6 -4 -3 0 -20 7 -39 8 -18 11 -35 8 -39 -4 -3 -1 -6 6 -6 7 0 11
-7 8 -15 -4 -8 -2 -17 4 -21 6 -3 8 -12 5 -19 -3 -8 0 -15 5 -17 5 -2 12 -17
14 -33 2 -17 4 -30 5 -30 1 0 3 -11 5 -25 7 -50 14 -80 21 -91 5 -8 3 -9 -5
-4 -10 6 -11 3 -2 -14 9 -16 9 -21 0 -21 -8 0 -8 -4 -2 -13 14 -17 22 -67 11
-67 -5 0 -6 -9 -3 -20 4 -12 1 -27 -5 -35 -10 -12 -10 -15 0 -15 8 0 9 -4 3
-12 -5 -7 -8 -23 -7 -36 0 -12 -3 -22 -8 -22 -5 0 -6 -5 -3 -10 4 -6 1 -18 -7
-27 -11 -14 -11 -16 2 -8 12 7 13 6 3 -7 -7 -8 -10 -18 -6 -21 3 -4 1 -7 -6
-7 -7 0 -10 -4 -6 -9 3 -5 -2 -17 -11 -25 -8 -9 -12 -16 -9 -16 8 0 -43 -89
-62 -108 -7 -7 -13 -18 -13 -24 0 -6 -3 -8 -7 -5 -3 4 -11 -3 -18 -16 -6 -12
-17 -21 -23 -19 -7 1 -12 -3 -12 -9 0 -15 -28 -41 -39 -35 -5 3 -11 -3 -14
-14 -3 -11 -12 -20 -21 -20 -9 0 -16 -5 -16 -12 0 -6 -3 -9 -6 -6 -3 3 -17 -5
-31 -18 -18 -17 -29 -21 -34 -13 -4 6 -6 -2 -5 -19 1 -17 4 -34 8 -37 4 -4 4
-13 1 -21 -3 -8 0 -14 7 -14 7 0 10 -8 7 -20 -3 -11 -1 -20 3 -20 8 0 20 -58
25 -112 1 -10 4 -21 8 -24 4 -4 3 -12 -3 -18 -14 -18 31 -18 57 -1 16 11 23
12 26 2 3 -7 6 -5 6 6 1 9 8 17 16 17 8 0 15 5 15 12 0 6 3 8 6 5 6 -6 50 20
81 48 6 5 26 21 45 35 18 14 46 39 62 57 16 18 34 30 39 26 6 -3 7 -2 4 4 -7
12 28 44 39 35 4 -4 4 -1 0 5 -4 7 2 20 14 30 11 10 20 21 20 26 0 4 18 35 40
68 22 33 36 58 31 55 -4 -3 -1 10 8 28 9 19 19 32 24 29 4 -2 7 -1 6 4 -1 4
-1 10 1 13 2 6 11 61 12 78 1 6 6 12 11 12 5 0 7 6 4 14 -3 7 0 24 7 37 6 13
11 61 11 106 0 46 3 83 6 83 4 0 3 18 -1 40 -5 27 -4 40 4 40 7 0 7 3 1 8 -5
4 -10 31 -10 59 0 29 -4 53 -10 53 -5 0 -3 5 5 10 12 7 12 10 1 10 -7 0 -11 6
-7 15 3 8 2 15 -2 15 -4 0 -7 12 -6 28 1 15 -3 33 -8 39 -6 7 -8 20 -4 28 3 8
1 15 -5 15 -6 0 -9 7 -5 15 3 8 1 15 -5 15 -6 0 -9 7 -5 15 3 8 1 15 -5 15 -6
0 -9 7 -6 15 4 8 2 17 -3 20 -6 4 -10 17 -10 30 0 13 -4 27 -10 30 -5 3 -10
15 -10 26 0 10 -4 19 -10 19 -5 0 -7 6 -4 14 3 8 0 17 -5 21 -6 3 -9 11 -6 16
4 5 1 9 -4 9 -6 0 -11 9 -11 20 0 11 -4 20 -8 20 -5 0 -9 7 -10 15 -1 8 -3 22
-4 30 -1 8 -6 15 -11 15 -6 0 -8 3 -4 6 3 3 -2 14 -11 25 -9 11 -17 23 -17 27
-1 4 -6 17 -13 30 -7 12 -9 22 -5 22 4 0 1 5 -7 10 -8 5 -16 13 -16 17 -4 23
-17 53 -23 53 -4 0 -13 16 -21 35 -8 19 -17 35 -21 35 -3 0 -12 14 -19 30 -7
17 -17 30 -22 30 -5 0 -6 5 -3 10 3 6 1 10 -6 10 -7 0 -10 3 -6 6 6 6 3 11
-38 58 -27 31 -32 41 -13 30 6 -4 3 5 -8 19 -10 15 -22 27 -26 27 -5 0 -8 5
-8 11 0 6 -7 17 -15 26 -8 8 -12 19 -9 25 4 6 2 8 -4 4 -14 -8 -55 50 -46 65
4 8 3 9 -4 5 -7 -4 -20 7 -33 28 -12 20 -26 36 -32 36 -6 0 -8 2 -5 5 3 3 -6
18 -21 34 -36 38 -62 71 -55 71 3 0 -13 18 -36 40 -23 22 -39 40 -35 40 3 0
-8 14 -25 30 -27 27 -30 33 -18 47 11 14 11 16 -2 9 -8 -4 0 5 18 22 17 16 32
34 32 40 0 5 16 23 35 39 19 17 35 36 35 42 0 7 5 9 10 6 6 -3 10 0 10 8 0 19
34 49 45 40 4 -5 5 -3 1 4 -4 7 10 29 34 53 22 22 40 45 40 50 0 6 5 10 12 10
6 0 9 3 5 6 -3 3 5 18 19 32 13 15 24 32 24 38 0 16 35 45 44 37 4 -4 4 -1 1
8 -3 8 4 24 15 36 11 12 20 25 20 29 0 4 8 13 18 21 11 10 12 12 2 8 -8 -4 -6
1 4 9 11 9 17 16 13 16 -5 0 -2 6 5 14 7 8 16 12 20 9 4 -2 5 2 2 10 -3 8 2
21 10 30 9 9 16 20 16 26 0 6 4 11 10 11 5 0 9 3 8 8 -3 14 25 61 34 56 5 -3
7 -2 6 3 -5 14 24 73 33 67 5 -3 6 1 3 9 -3 8 2 22 11 31 9 9 14 16 10 16 -3
0 5 21 19 48 27 49 48 100 51 117 0 6 6 9 12 8 6 -1 9 6 6 17 -3 11 0 20 6 20
5 0 8 6 5 13 -3 8 2 19 10 26 8 7 12 21 8 33 -3 12 -1 19 4 16 5 -4 10 8 11
25 1 17 6 33 10 36 9 6 13 23 17 58 1 12 9 30 17 39 9 11 9 15 2 10 -7 -4 -13
-3 -13 2 0 6 8 13 17 16 12 5 13 10 5 18 -6 6 -8 18 -3 27 5 9 7 26 6 39 -1
12 1 22 4 22 3 0 6 19 6 43 0 23 3 52 7 65 4 13 3 22 -3 22 -6 0 -6 7 1 20 6
11 7 20 3 20 -4 0 -8 13 -9 30 -1 16 2 27 6 25 4 -2 7 2 7 10 0 8 -3 15 -7 15
-8 0 -5 49 4 57 3 3 -2 12 -10 21 -10 9 -12 17 -5 21 6 4 6 12 1 20 -4 8 -6
20 -3 28 3 7 0 13 -7 13 -7 0 -10 8 -7 20 3 11 2 20 -2 20 -4 0 -7 13 -6 30 1
16 -2 27 -6 24 -4 -2 -10 0 -14 6 -3 5 0 10 7 10 10 0 10 2 -1 9 -7 5 -10 14
-7 20 4 6 4 11 -1 10 -20 -4 -24 2 -12 18 8 9 9 14 2 10 -11 -7 -30 28 -25 46
1 5 -2 6 -8 2 -9 -6 -14 10 -13 42 0 6 -6 9 -15 6 -10 -4 -13 -2 -8 5 4 7 2
12 -3 12 -6 0 -11 5 -11 11 0 6 -6 17 -12 24 -30 33 -38 45 -33 45 3 0 -24 29
-60 65 -37 36 -71 65 -76 65 -6 0 -7 5 -4 10 3 6 -1 10 -10 10 -8 0 -18 7 -21
15 -4 8 -10 13 -15 10 -4 -3 -13 4 -19 15 -7 14 -17 19 -27 16 -11 -5 -13 -2
-9 9 3 9 2 13 -4 10 -12 -7 -80 23 -80 36 0 5 -7 6 -15 3 -8 -4 -17 1 -21 10
-3 9 -10 14 -14 11 -5 -3 -11 -1 -15 5 -4 6 -11 8 -16 5 -5 -4 -9 -1 -9 4 0 6
-9 11 -20 11 -11 0 -20 4 -20 8 0 4 -12 9 -27 10 -15 1 -29 5 -32 10 -3 4 -15
9 -26 10 -11 2 -26 9 -34 15 -12 10 -13 9 -6 -3 7 -12 6 -13 -7 -3 -8 7 -18
10 -21 6 -4 -3 -7 -2 -7 4 0 6 -9 9 -20 6 -11 -3 -20 -1 -20 4 0 5 -17 10 -37
11 -21 2 -41 8 -45 15 -6 9 -8 8 -8 -3 0 -9 -3 -11 -8 -5 -4 6 -23 12 -42 14
-19 1 -40 7 -45 11 -6 5 -17 5 -25 0 -7 -4 -23 -5 -34 -1 -18 7 -51 10 -136
13 -8 1 -18 6 -22 12 -5 7 -8 6 -8 -3 0 -11 -3 -11 -15 -1 -11 9 -15 9 -15 1
0 -8 -6 -9 -17 -3 -20 9 -55 8 -72 -2 -6 -4 -11 -2 -11 5 0 8 -4 9 -13 0 -10
-8 -17 -7 -25 1 -9 9 -12 9 -12 -1 0 -11 -3 -11 -15 -1 -12 10 -15 10 -15 0 0
-10 -3 -10 -15 0 -12 10 -15 10 -15 0 0 -10 -3 -10 -15 0 -8 7 -15 9 -15 4 0
-5 -15 -9 -34 -9 -19 0 -32 4 -29 8 3 5 -4 4 -15 -2 -11 -6 -34 -9 -51 -7 -17
2 -31 1 -31 -3 0 -3 -17 -6 -38 -5 -20 0 -45 -4 -56 -9 -13 -6 -21 -5 -27 4
-5 9 -11 10 -21 2 -7 -6 -32 -10 -55 -9 -22 0 -39 -2 -37 -5 2 -4 -3 -9 -11
-13 -8 -3 -17 -1 -21 5 -3 6 -10 6 -17 1 -7 -5 -22 -8 -34 -7 -13 1 -23 -1
-23 -5 0 -3 -12 -5 -27 -5 -16 1 -34 -4 -42 -9 -12 -9 -13 -8 -6 4 8 13 6 13
-8 2 -9 -8 -21 -11 -27 -7 -5 3 -10 2 -10 -2 0 -5 -17 -9 -37 -8 -21 0 -40 -2
-43 -6 -10 -14 -84 -14 -75 0 3 5 -1 15 -8 23 -8 7 -13 21 -11 31 1 9 -3 17
-9 17 -5 0 -8 3 -5 6 4 3 0 17 -7 31 -8 15 -12 30 -9 35 3 4 0 8 -7 8 -7 0 -9
3 -6 7 4 3 2 12 -4 20 -6 7 -9 13 -6 13 3 0 0 12 -8 27 -8 15 -11 31 -8 36 3
6 1 7 -5 3 -8 -5 -12 1 -12 16 0 16 -3 19 -9 10 -4 -8 -12 -14 -17 -14 -18 -1
-52 -17 -59 -28 -3 -5 -10 -8 -15 -5 -4 3 -10 -2 -14 -10 -3 -8 -10 -15 -17
-15 -6 0 -24 -9 -40 -21 -16 -11 -29 -15 -29 -9 0 7 -7 5 -16 -4 -8 -9 -19
-14 -24 -11 -9 6 -23 -12 -27 -34 -1 -8 5 -27 13 -42 17 -34 18 -43 2 -33 -7
4 -8 3 -4 -5 4 -6 12 -9 17 -6 5 4 10 -2 11 -12 0 -10 2 -22 3 -28 2 -5 4 -14
5 -20 1 -5 2 -13 1 -17 0 -5 4 -8 11 -8 6 0 8 -3 5 -7 -4 -3 -2 -12 4 -19 14
-17 -13 -33 -63 -37 -10 -1 -18 -4 -18 -8 0 -4 -9 -9 -20 -12 -12 -3 -18 -1
-14 5 4 6 -3 5 -15 -1 -12 -7 -27 -9 -33 -5 -7 4 -8 3 -4 -4 4 -7 1 -12 -6
-13 -30 -1 -62 -10 -73 -19 -7 -6 -16 -5 -23 2 -9 9 -12 8 -12 -6 0 -16 -2
-16 -16 -6 -12 11 -15 11 -12 -1 2 -9 -5 -14 -19 -13 -13 1 -23 -3 -23 -8 0
-5 -5 -6 -10 -3 -6 4 -16 2 -23 -3 -7 -6 -29 -13 -49 -17 -21 -4 -38 -11 -38
-15 0 -5 -11 -7 -25 -5 -17 1 -25 -3 -25 -13 0 -12 -3 -12 -16 -2 -12 11 -15
11 -12 -1 2 -9 -5 -14 -19 -13 -13 1 -23 -2 -23 -7 0 -4 -9 -6 -20 -4 -11 2
-18 0 -15 -6 6 -8 1 -10 -37 -13 -7 -1 -17 -7 -21 -14 -5 -7 -12 -10 -17 -7
-5 3 -23 -1 -40 -10 -17 -9 -36 -13 -42 -9 -7 4 -8 3 -4 -4 7 -11 -12 -16 -52
-15 -7 1 -11 -2 -7 -5 9 -9 -85 -43 -97 -36 -7 4 -8 2 -4 -4 5 -8 0 -12 -13
-12 -11 0 -26 -6 -33 -13 -7 -8 -23 -13 -35 -12 -12 1 -21 -3 -20 -8 1 -5 -7
-11 -17 -13 -10 -1 -22 -7 -25 -12 -3 -5 -14 -8 -23 -6 -10 1 -18 -3 -18 -9 0
-5 -3 -7 -7 -4 -3 4 -12 -1 -19 -11 -11 -14 -16 -15 -33 -4 -12 6 -28 12 -36
12 -8 0 -15 4 -15 8 0 5 -7 9 -15 10 -8 1 -22 3 -30 4 -8 1 -15 5 -15 10 0 4
-7 8 -15 8 -8 0 -15 5 -15 10 0 6 -3 9 -7 8 -11 -4 -93 24 -93 31 0 4 -8 7
-17 8 -32 3 -93 33 -93 46 0 9 -2 9 -8 0 -5 -8 -17 -7 -45 6 -20 10 -34 21
-30 26 5 5 1 4 -7 -2 -11 -9 -20 -8 -34 3 -10 7 -23 11 -27 8 -5 -3 -9 0 -9 6
0 6 -4 8 -10 5 -5 -3 -10 -2 -10 4 0 5 -9 8 -20 6 -11 -2 -20 0 -20 6 0 5 -8
9 -17 9 -24 0 -103 31 -103 40 0 5 -9 6 -20 3 -12 -3 -20 0 -20 7 0 7 -8 10
-20 7 -10 -3 -21 0 -22 5 -2 6 -19 12 -38 15 -19 2 -36 7 -39 11 -6 7 -15 10
-50 15 -11 2 -26 8 -33 15 -8 6 -18 9 -21 6 -3 -4 -14 -3 -24 1 -10 4 -29 9
-43 11 -14 2 -26 8 -28 14 -2 5 -8 7 -13 4 -6 -3 -17 0 -26 8 -12 9 -15 9 -9
1 5 -9 2 -11 -8 -7 -9 3 -16 10 -16 15 0 4 -7 6 -15 3 -22 -9 -45 14 -41 40 3
11 5 25 5 29 1 5 4 6 9 4 4 -3 8 11 9 31 1 19 7 38 14 42 6 4 8 13 5 19 -4 6
-2 11 3 11 6 0 11 8 11 18 0 10 7 27 15 39 9 12 15 26 14 30 -3 19 14 52 24
46 5 -3 7 -1 4 4 -10 16 93 249 117 265 6 4 7 8 2 8 -6 0 -5 5 2 12 7 7 12 20
12 30 0 10 5 18 10 18 6 0 10 6 10 14 0 7 7 19 15 26 8 7 15 21 15 31 0 10 5
21 12 25 7 5 8 3 3 -6 -5 -8 -4 -11 3 -6 6 4 9 13 5 21 -3 8 -1 15 5 15 5 0
13 11 16 25 4 14 11 25 17 25 6 0 7 5 3 12 -5 8 -2 9 10 5 10 -4 15 -3 11 3
-8 13 26 71 37 64 5 -3 7 -1 6 4 -3 11 18 45 45 74 9 10 14 18 11 18 -3 0 2 7
11 16 9 9 23 27 32 40 8 13 20 21 26 17 6 -3 7 -1 3 5 -3 6 2 15 11 21 10 6
14 11 10 11 -13 0 50 60 64 60 7 0 10 3 6 6 -8 9 54 64 65 58 5 -3 7 0 6 8 -2
7 5 12 14 12 10 -1 16 1 13 5 -5 10 32 41 39 34 3 -4 6 -1 6 5 0 15 55 43 65
34 5 -4 5 -2 2 4 -7 11 116 73 158 80 11 2 49 10 85 18 36 8 66 11 68 6 2 -5
13 -5 27 0 12 5 25 6 28 4 5 -5 73 -16 105 -17 6 0 12 -3 12 -7 0 -4 6 -7 13
-8 6 0 27 -3 45 -6 25 -3 37 0 53 17 11 12 47 51 79 87 33 35 60 61 60 56 0
-5 9 1 20 14 28 33 25 47 -15 61 -19 7 -35 16 -35 19 0 4 -7 7 -15 8 -8 1 -22
3 -30 4 -8 1 -15 5 -15 9 0 7 -31 19 -70 25 -14 3 -32 7 -40 11 -8 3 -28 7
-45 8 -16 2 -32 4 -35 5 -3 1 -13 2 -22 1 -10 -1 -18 3 -18 9 0 6 -5 8 -12 3
-20 -12 -38 -12 -38 -1 0 7 -5 7 -13 -1 -8 -6 -17 -8 -21 -4 -11 11 -36 12
-36 1 0 -7 -5 -7 -13 1 -8 6 -17 8 -21 4z m-2266 -1862 c0 -5 8 -8 18 -6 9 1
25 -2 36 -7 13 -7 16 -7 12 1 -10 15 7 14 22 -1 7 -7 12 -8 12 -2 0 5 15 9 33
8 17 -1 54 -4 80 -5 27 -2 50 -7 53 -11 3 -5 11 -5 17 -1 16 10 47 11 47 2 0
-4 8 -6 18 -4 9 1 23 -2 30 -8 8 -6 12 -6 12 1 0 11 38 4 58 -11 8 -6 12 -6
12 1 0 14 32 10 49 -6 9 -9 17 -10 24 -3 6 6 18 6 32 1 13 -5 26 -6 29 -3 3 4
6 2 6 -4 0 -6 9 -9 20 -6 11 3 28 -1 37 -8 14 -12 15 -12 9 -1 -7 11 -4 12 12
3 12 -6 25 -10 29 -9 4 1 18 -1 30 -5 18 -7 21 -13 16 -40 -3 -18 -6 -40 -6
-50 -1 -10 -7 -15 -15 -12 -9 3 -10 0 -4 -12 6 -11 5 -27 -4 -48 -7 -18 -10
-35 -7 -39 4 -3 2 -6 -4 -6 -6 0 -11 -6 -10 -12 1 -42 -4 -68 -13 -63 -13 8
-8 -18 5 -27 6 -5 5 -8 -3 -8 -7 0 -10 -4 -7 -10 3 -5 2 -10 -3 -10 -6 0 -8
-9 -5 -20 3 -11 1 -20 -3 -20 -5 0 -10 -15 -11 -33 -3 -30 -10 -72 -13 -72 -2
0 -12 -76 -13 -97 -1 -10 -5 -18 -9 -18 -4 0 -5 -7 -2 -15 4 -8 2 -15 -4 -15
-5 0 -7 -11 -5 -24 3 -13 0 -27 -7 -31 -8 -5 -8 -10 1 -21 6 -8 7 -14 2 -14
-6 0 -10 -8 -10 -17 0 -46 -4 -64 -12 -58 -6 3 -6 -6 -1 -25 5 -19 5 -32 -2
-36 -5 -4 -8 -17 -5 -30 2 -13 1 -24 -3 -24 -4 0 -7 -6 -7 -12 -2 -55 -17
-155 -25 -165 -7 -9 -7 -13 2 -13 10 0 10 -3 0 -15 -7 -9 -8 -15 -2 -15 5 0 8
-9 5 -20 -3 -11 -8 -18 -12 -16 -3 2 -5 -13 -3 -35 4 -37 -16 -74 -40 -74 -5
0 -12 -5 -16 -11 -4 -6 -25 -21 -47 -33 -22 -11 -36 -21 -30 -21 5 0 0 -6 -10
-14 -11 -8 -23 -12 -28 -9 -4 2 -6 0 -5 -5 2 -6 0 -10 -4 -11 -5 -1 -17 -9
-27 -18 -35 -32 -50 -43 -58 -43 -5 0 -15 -9 -23 -20 -8 -11 -20 -20 -27 -20
-7 0 -17 -9 -23 -20 -6 -11 -15 -20 -20 -20 -5 0 -26 -16 -46 -35 -20 -19 -41
-32 -47 -28 -7 3 -9 3 -5 -2 10 -10 -19 -38 -32 -30 -5 3 -10 1 -10 -6 0 -11
-45 -59 -55 -59 -3 0 -25 -20 -51 -45 -25 -25 -50 -42 -56 -39 -6 4 -8 3 -5
-3 8 -13 -60 -76 -73 -68 -6 4 -9 2 -8 -3 4 -12 -103 -118 -115 -114 -5 1 -6
-2 -2 -8 3 -5 1 -10 -4 -10 -6 0 -11 -7 -11 -16 0 -8 -4 -13 -10 -9 -5 3 -17
-6 -26 -20 -9 -13 -20 -22 -25 -19 -5 3 -8 0 -7 -7 6 -26 -23 -19 -57 14 -19
19 -35 37 -35 41 0 4 -12 20 -27 35 -39 41 -58 65 -55 68 1 2 -8 14 -20 27
-57 58 -91 110 -81 121 5 4 2 5 -4 1 -8 -5 -13 -1 -13 10 0 10 -3 14 -7 10 -6
-6 -59 69 -61 87 0 5 -11 17 -23 28 -12 10 -18 19 -13 19 5 0 1 5 -9 11 -9 6
-15 14 -12 20 4 5 1 9 -5 9 -6 0 -9 4 -6 9 3 5 -1 12 -10 15 -8 3 -13 10 -10
15 3 5 -1 12 -10 15 -8 3 -13 10 -10 15 3 5 -1 14 -9 21 -8 7 -15 18 -15 25 0
8 -4 15 -8 17 -14 6 -52 78 -52 99 0 10 -4 19 -8 19 -13 0 -53 90 -46 102 4 6
2 8 -3 5 -6 -4 -13 0 -17 8 -3 8 0 15 7 15 7 0 4 5 -6 11 -9 6 -15 14 -12 20
4 5 1 9 -4 9 -6 0 -11 9 -11 20 0 11 -4 20 -8 20 -4 0 -9 8 -10 18 -6 50 -8
58 -16 63 -5 4 -10 17 -12 30 -1 13 -7 39 -13 58 -6 19 -8 38 -5 42 3 5 1 9
-4 9 -5 0 -9 6 -9 13 0 24 -14 111 -19 118 -2 4 0 10 6 14 7 4 7 12 1 23 -6
10 -6 23 0 34 5 10 6 18 1 18 -5 0 -9 7 -9 15 0 8 3 15 6 15 3 0 5 18 5 40 -1
22 2 40 7 40 4 0 6 7 3 15 -4 8 -1 15 6 15 10 0 10 3 0 15 -10 12 -10 15 0 15
8 0 11 3 7 6 -3 4 0 19 8 34 8 15 11 30 8 34 -4 3 -1 6 5 6 7 0 11 6 9 13 -1
6 4 11 11 9 8 -1 11 2 7 8 -4 6 -1 17 5 25 7 8 9 15 6 15 -7 0 4 15 37 51 9
10 17 21 17 24 0 12 62 65 70 60 6 -3 10 0 10 8 0 14 110 94 110 80 0 -5 4 -3
8 4 4 6 14 13 22 15 8 2 21 9 28 16 8 7 18 10 23 7 5 -4 9 -1 9 5 0 6 5 8 10
5 6 -3 10 -1 10 5 0 7 7 10 15 6 8 -3 15 -2 15 3 0 11 71 32 83 24 6 -3 7 -2
4 4 -6 9 118 41 137 35 4 -1 13 1 20 6 6 5 23 9 39 8 15 -1 27 1 27 5 0 4 8 6
18 4 9 -1 23 2 30 8 8 6 12 6 12 -3 0 -8 4 -9 13 -3 6 5 31 9 54 9 24 -1 43 3
43 8 0 5 8 2 17 -5 11 -10 14 -10 9 -1 -9 15 6 16 22 0 7 -7 12 -8 12 -2 0 5
23 9 51 9 27 0 55 3 62 7 16 10 27 10 27 -1z m4738 0 c1 -1 4 0 5 2 2 1 11 -4
20 -12 10 -7 17 -10 17 -5 0 5 15 8 32 7 18 -1 55 -2 81 -2 32 -1 46 -5 41
-12 -4 -8 0 -8 15 0 16 9 21 9 21 -1 0 -9 3 -9 12 0 8 8 15 9 25 1 7 -7 13 -8
13 -5 0 4 9 2 20 -4 13 -7 20 -7 20 -1 0 7 8 7 24 1 13 -5 27 -6 30 -3 3 4 6
2 6 -3 0 -6 10 -11 23 -12 38 -3 62 -8 75 -16 6 -4 16 -5 20 -2 5 3 21 -2 36
-9 16 -8 32 -12 37 -9 5 3 9 0 9 -7 0 -7 3 -10 6 -6 10 9 64 -14 58 -25 -4 -6
1 -8 15 -3 12 4 21 2 21 -4 0 -6 6 -11 14 -11 8 0 21 -6 28 -12 7 -7 20 -13
28 -13 8 0 14 -6 12 -14 -2 -8 3 -11 12 -8 9 4 20 -1 25 -11 6 -9 11 -13 11
-9 0 10 14 -2 93 -77 34 -33 61 -64 60 -68 -2 -4 2 -8 7 -8 6 0 10 -6 10 -14
0 -8 3 -16 8 -18 13 -5 52 -85 45 -92 -3 -3 -1 -6 6 -6 7 0 11 -6 8 -14 -3 -7
-1 -18 4 -23 6 -6 11 -27 12 -47 1 -20 6 -36 10 -36 5 0 7 -8 6 -17 -1 -10 0
-20 1 -23 7 -19 3 -81 -5 -85 -6 -3 -5 -7 2 -11 9 -4 10 -11 3 -25 -7 -12 -7
-19 -1 -19 6 0 8 -6 5 -13 -4 -12 -9 -45 -13 -85 0 -7 -6 -10 -13 -6 -7 5 -8
3 -2 -7 9 -15 6 -61 -5 -69 -6 -5 -7 -9 -9 -56 -1 -16 -6 -23 -14 -18 -7 4 -8
3 -4 -4 4 -6 0 -27 -8 -46 -8 -19 -12 -37 -8 -40 3 -3 0 -6 -7 -6 -7 0 -9 -5
-6 -10 4 -6 2 -16 -3 -23 -5 -7 -17 -36 -26 -64 -10 -29 -22 -53 -27 -53 -5 0
-8 -3 -7 -7 1 -5 -3 -17 -9 -28 -6 -11 -10 -23 -10 -27 1 -4 -5 -16 -13 -26
-8 -10 -16 -25 -18 -33 -2 -7 -7 -16 -10 -19 -4 -3 -8 -12 -10 -20 -2 -8 -11
-26 -20 -40 -9 -14 -15 -28 -14 -32 1 -5 -2 -8 -8 -8 -5 0 -10 -6 -10 -13 0
-7 -9 -23 -20 -35 -11 -12 -20 -25 -20 -30 0 -5 -7 -15 -15 -22 -9 -7 -13 -15
-10 -18 2 -3 -5 -13 -16 -23 -11 -9 -21 -21 -21 -26 -2 -17 -31 -53 -39 -47
-5 3 -6 -1 -3 -9 3 -8 -2 -20 -11 -27 -8 -7 -15 -17 -15 -23 0 -5 -9 -18 -21
-28 -11 -9 -21 -21 -22 -26 -1 -4 -5 -7 -10 -5 -4 1 -6 -1 -6 -5 3 -20 -2 -34
-11 -28 -5 3 -10 1 -10 -5 0 -22 -41 -70 -53 -64 -7 4 -9 4 -5 -1 10 -11 -11
-47 -23 -40 -5 4 -9 0 -9 -8 0 -8 -13 -28 -28 -45 -16 -17 -35 -40 -43 -52
-27 -41 -48 -31 -151 71 -54 54 -98 96 -98 93 0 -3 -21 16 -47 43 -27 26 -78
72 -115 102 -37 29 -69 60 -73 69 -3 8 -8 12 -11 9 -3 -3 -18 6 -34 21 -36 36
-102 92 -107 92 -3 0 -10 6 -17 13 -7 6 -28 23 -46 37 -19 14 -42 33 -52 43
-10 9 -18 14 -18 10 0 -3 -8 4 -19 15 -10 12 -22 22 -27 22 -5 0 -16 9 -24 20
-8 11 -20 20 -26 20 -7 0 -15 7 -18 16 -4 9 -9 14 -12 11 -3 -3 -15 2 -26 11
-11 9 -29 25 -40 35 -12 9 -24 17 -28 17 -5 0 -11 7 -14 16 -5 12 -2 15 11 10
17 -6 17 -5 1 7 -10 8 -16 23 -13 35 2 12 0 22 -4 22 -4 0 -7 14 -6 30 1 17
-2 33 -6 36 -5 2 -4 16 1 29 6 17 6 25 -1 25 -6 0 -9 8 -8 18 1 9 0 19 -1 22
-2 5 -5 24 -14 100 -3 25 -10 62 -15 82 -6 25 -5 36 1 32 6 -4 5 3 -2 16 -6
12 -9 28 -6 36 3 8 2 14 -3 14 -4 0 -9 12 -10 28 -3 49 -7 67 -16 81 -6 10 -4
12 6 6 11 -7 12 -6 2 6 -6 8 -12 28 -14 44 -2 17 -7 36 -12 43 -6 8 -5 12 4
12 9 0 10 3 4 8 -10 7 -18 39 -19 79 -1 11 -4 19 -8 16 -7 -4 -11 21 -11 70 0
9 -3 17 -6 17 -4 0 -8 10 -9 23 -3 31 -7 48 -19 77 -7 15 -7 29 -2 36 6 8 5
13 -4 17 -7 2 -14 20 -15 38 -1 18 -7 38 -12 44 -5 7 -7 15 -3 18 3 4 0 13 -6
21 -8 10 -9 16 -1 21 6 3 8 10 5 15 -3 4 4 10 15 13 13 3 18 1 13 -6 -5 -9 -3
-9 8 0 8 6 37 15 64 18 73 10 90 13 90 15 0 1 16 3 35 5 19 2 35 4 35 4 0 2
78 10 135 14 14 1 28 7 32 12 5 6 8 5 8 -4 0 -10 3 -11 14 -2 10 9 16 9 21 1
5 -8 11 -8 21 1 8 6 25 9 39 7 14 -3 25 -1 25 5 0 5 8 3 17 -4 11 -10 14 -10
9 -1 -9 15 6 16 22 0 9 -9 12 -9 12 1 0 11 3 11 17 0 11 -10 14 -10 9 -1 -9
15 6 16 22 0 9 -9 12 -9 12 1 0 11 3 11 17 0 10 -8 14 -9 10 -2 -6 9 4 11 33
10 22 -2 40 1 40 4 0 6 19 5 38 0z m-3653 -161 c0 -2 37 -10 63 -12 12 -1 22
-7 22 -12 0 -5 3 -7 6 -3 3 3 18 1 33 -5 14 -5 35 -11 46 -13 11 -2 45 -11 75
-21 30 -10 58 -17 63 -16 4 1 7 -2 7 -7 0 -5 6 -9 13 -8 30 1 48 -4 43 -12 -3
-4 6 -6 19 -3 15 2 25 0 25 -7 0 -6 10 -11 23 -11 13 0 41 -9 63 -19 21 -11
42 -17 46 -14 5 2 8 0 8 -6 0 -6 7 -7 17 -4 12 5 14 3 8 -7 -5 -8 -4 -11 3 -6
6 3 23 1 39 -5 15 -7 37 -14 48 -16 11 -2 22 -8 23 -13 2 -6 12 -10 23 -10 10
0 19 -4 19 -9 0 -5 9 -7 20 -4 13 3 22 -1 26 -12 5 -13 9 -14 15 -3 7 10 9 10
9 1 0 -7 8 -13 18 -13 10 0 27 -7 38 -16 10 -8 13 -13 7 -9 -7 3 -13 2 -13 -3
0 -9 -26 -20 -41 -18 -3 1 -14 -7 -24 -17 -9 -10 -24 -16 -31 -13 -8 3 -13 0
-11 -7 1 -7 -4 -11 -10 -9 -7 1 -13 -3 -13 -9 0 -5 -4 -8 -9 -5 -5 3 -14 -1
-21 -9 -7 -8 -19 -15 -26 -15 -8 0 -14 -5 -14 -11 0 -5 -4 -8 -9 -4 -5 3 -15
0 -23 -7 -7 -7 -20 -14 -28 -16 -8 -2 -17 -7 -20 -11 -10 -16 -51 -32 -62 -25
-6 4 -8 3 -4 -4 7 -12 -29 -26 -44 -17 -6 4 -7 -1 -3 -11 4 -12 3 -15 -5 -10
-7 4 -15 1 -18 -8 -3 -9 -10 -13 -15 -10 -5 3 -9 0 -9 -6 0 -7 -7 -10 -15 -6
-8 3 -15 1 -15 -4 0 -6 -7 -10 -15 -10 -8 0 -15 -4 -15 -8 0 -5 -18 -17 -40
-27 -22 -10 -45 -24 -51 -32 -7 -8 -21 -11 -33 -8 -15 5 -17 4 -7 -3 11 -8 7
-13 -18 -26 -17 -9 -36 -14 -41 -11 -6 4 -7 -1 -3 -11 4 -12 3 -15 -5 -10 -7
4 -12 2 -12 -3 0 -6 -5 -11 -12 -11 -6 0 -26 -11 -43 -25 -18 -13 -34 -22 -37
-20 -2 2 -17 -7 -33 -21 -16 -13 -35 -22 -42 -19 -8 2 -11 0 -8 -5 4 -6 -7
-16 -24 -23 -17 -7 -28 -16 -24 -20 3 -4 -1 -7 -9 -7 -9 0 -21 -7 -28 -15 -7
-9 -15 -13 -17 -11 -3 3 -15 -4 -26 -15 -12 -11 -27 -17 -35 -14 -7 2 -10 0
-7 -5 3 -6 2 -10 -3 -10 -6 0 -9 20 -8 45 0 25 4 45 8 45 3 0 4 10 0 22 -3 12
-1 19 5 15 5 -3 10 0 10 8 0 8 -4 15 -8 15 -5 0 -4 11 1 24 5 13 6 27 3 30 -4
3 -1 6 5 6 6 0 9 6 6 14 -3 8 0 24 6 36 9 17 9 21 0 15 -9 -6 -9 -3 -1 12 6
11 7 23 4 27 -3 3 -2 6 4 6 6 0 8 11 5 25 -2 14 0 25 5 25 5 0 7 14 5 31 -3
18 -1 29 4 26 5 -3 9 10 8 29 -1 19 1 34 5 34 3 0 7 10 7 23 2 27 11 82 14 82
1 0 3 11 5 25 2 14 9 39 16 55 7 17 11 36 10 44 -1 8 3 18 11 22 10 7 10 9 0
9 -9 0 -10 5 -2 19 5 11 10 29 10 41 0 12 4 19 8 16 5 -3 8 5 7 17 -1 12 2 28
8 35 5 6 6 12 1 12 -5 0 -2 5 6 10 11 7 11 10 2 10 -7 0 -11 4 -8 9 5 7 41 8
41 1z m2526 -15 c1 -5 4 -14 8 -20 4 -5 7 -17 6 -25 0 -8 2 -17 6 -20 4 -3 9
-25 13 -49 3 -24 11 -51 18 -59 10 -13 10 -14 1 -8 -7 4 -13 2 -13 -3 0 -6 4
-11 9 -11 5 0 8 -8 7 -17 -2 -10 0 -20 5 -23 4 -3 10 -21 12 -41 2 -19 7 -41
12 -48 6 -10 4 -12 -4 -6 -7 4 -5 -5 5 -21 14 -21 15 -26 4 -19 -13 8 -13 6
-2 -8 8 -9 11 -21 7 -27 -3 -5 -1 -10 6 -10 8 0 7 -5 -2 -17 -10 -11 -10 -14
-1 -9 12 7 15 -5 15 -56 0 -10 3 -18 7 -18 4 0 7 -6 7 -12 4 -53 8 -75 17 -87
8 -11 8 -13 -2 -7 -11 6 -11 4 -3 -10 10 -19 26 -111 22 -128 -1 -5 4 -13 11
-17 11 -7 11 -9 0 -9 -7 0 -10 -5 -6 -11 4 -6 8 -23 10 -38 1 -14 5 -36 8 -48
2 -13 1 -25 -5 -28 -5 -4 -9 -1 -9 6 0 7 -3 10 -6 6 -6 -6 -72 38 -85 56 -3 5
-8 7 -10 6 -8 -7 -48 28 -41 36 4 5 1 5 -7 0 -9 -5 -19 -2 -27 9 -7 10 -14 16
-17 14 -7 -4 -117 65 -117 74 0 4 -7 5 -15 2 -10 -4 -15 0 -15 11 0 9 -4 14
-9 10 -5 -3 -15 1 -23 8 -7 7 -34 23 -60 37 -27 14 -48 28 -48 32 0 3 -16 12
-35 18 -19 6 -35 15 -35 19 0 4 -16 13 -35 21 -19 7 -32 17 -29 22 3 4 -2 5
-10 2 -9 -4 -18 1 -22 10 -3 9 -10 13 -16 10 -5 -3 -21 5 -35 17 -15 13 -23
17 -19 9 5 -9 2 -8 -7 2 -8 10 -17 15 -20 11 -4 -3 -16 4 -27 17 -11 13 -20
20 -20 16 0 -7 -150 71 -160 83 -3 3 -12 6 -20 6 -8 0 -14 6 -12 13 1 6 -1 11
-5 11 -23 -4 -43 2 -38 11 3 5 0 7 -8 4 -8 -3 -20 2 -27 11 -12 15 -4 20 23
16 4 0 7 3 7 8 0 10 30 23 41 18 3 -1 13 4 22 12 10 7 17 10 17 6 0 -4 7 -2
15 5 8 7 22 10 30 6 9 -3 14 -2 10 3 -3 5 12 15 32 22 48 16 54 18 78 21 11 2
22 6 25 10 3 4 17 9 30 10 14 2 28 7 31 11 3 4 16 9 27 10 12 1 22 4 22 8 0 4
15 10 33 14 17 4 37 9 42 11 6 2 19 5 30 6 11 2 22 5 25 8 15 16 60 28 66 19
4 -6 9 -7 13 -3 11 16 46 31 69 29 12 -1 22 2 22 6 0 4 9 6 20 4 11 -2 18 -1
16 3 -6 11 102 35 116 26 7 -5 8 -3 3 5 -5 9 -2 12 9 9 10 -1 17 -7 17 -13z
m-1251 -455 c0 -13 1 -13 10 0 8 12 10 12 10 1 0 -8 3 -12 6 -8 7 6 105 -41
115 -56 3 -5 8 -8 10 -7 13 5 58 -14 52 -23 -3 -5 -2 -7 4 -4 10 6 211 -91
233 -113 3 -3 11 -6 19 -8 8 -2 27 -12 41 -22 15 -11 30 -17 33 -13 4 3 9 -2
13 -11 3 -9 10 -13 15 -10 5 3 9 0 9 -6 0 -6 5 -8 10 -5 6 3 10 1 10 -4 0 -6
7 -11 16 -11 9 0 12 -5 8 -12 -4 -6 -3 -8 4 -5 15 10 43 -3 35 -16 -4 -6 -1
-7 6 -3 7 5 20 1 29 -7 9 -9 24 -17 32 -19 15 -3 22 -7 59 -38 13 -11 28 -17
32 -14 5 3 12 -2 15 -10 3 -9 10 -13 15 -10 5 3 12 -2 15 -10 3 -9 10 -13 15
-10 5 3 9 0 9 -6 0 -6 5 -8 10 -5 6 3 10 1 10 -4 0 -6 6 -11 13 -11 7 0 23 -9
35 -20 12 -11 26 -20 32 -20 6 0 23 -11 37 -24 15 -14 30 -23 34 -20 4 2 14
-5 22 -16 7 -11 17 -17 20 -13 4 3 7 1 7 -6 0 -7 5 -11 12 -9 6 2 20 -3 29
-11 35 -32 48 -41 59 -41 5 0 10 -4 10 -10 0 -5 5 -10 10 -10 12 0 73 -41 78
-52 2 -5 10 -8 18 -8 8 0 14 -4 14 -10 0 -5 7 -10 15 -10 8 0 15 -4 15 -10 0
-5 7 -10 15 -10 7 0 19 -8 24 -17 6 -10 11 -13 11 -8 0 7 3 7 8 0 4 -6 23 -22
42 -36 32 -24 35 -31 35 -73 -1 -25 2 -46 6 -46 4 0 4 -13 -1 -29 -4 -15 -4
-34 0 -42 5 -7 6 -17 4 -21 -3 -4 0 -8 6 -8 7 0 8 -6 2 -17 -5 -10 -6 -27 -2
-38 4 -11 3 -26 -2 -32 -7 -9 -7 -13 2 -13 7 0 11 -14 9 -38 -2 -21 0 -43 5
-50 4 -7 2 -12 -4 -12 -7 0 -8 -7 -3 -17 10 -22 10 -54 0 -71 -5 -7 -3 -12 3
-12 6 0 8 -4 5 -10 -3 -5 -1 -10 5 -10 8 0 8 -6 0 -20 -6 -12 -7 -20 -1 -20
11 0 9 -19 -3 -39 -5 -8 -4 -16 3 -20 8 -6 9 -15 2 -34 -8 -19 -7 -27 0 -27 8
0 7 -5 -1 -15 -10 -12 -10 -15 0 -15 10 0 10 -3 0 -15 -8 -9 -8 -15 -2 -15 7
0 8 -10 2 -29 -5 -20 -5 -31 2 -33 7 -3 7 -12 -2 -27 -9 -18 -9 -25 -1 -31 8
-5 9 -14 2 -33 -8 -19 -7 -27 0 -27 8 0 7 -5 -1 -15 -10 -12 -10 -15 0 -15 10
0 10 -3 0 -15 -8 -9 -8 -15 -2 -15 7 0 8 -10 2 -29 -5 -17 -4 -31 0 -33 5 -2
6 -19 1 -38 -4 -20 -7 -50 -7 -68 1 -18 -3 -32 -9 -32 -5 0 -3 -5 5 -10 11 -7
11 -10 2 -10 -7 0 -10 -5 -7 -11 8 -13 12 -129 4 -129 -3 0 -4 -14 -1 -30 2
-17 0 -30 -6 -30 -8 0 -9 -28 -2 -37 7 -9 4 -29 -5 -35 -6 -5 -6 -8 3 -8 6 0
12 -5 12 -11 0 -5 -5 -7 -11 -3 -7 4 -7 -1 1 -16 7 -12 8 -20 3 -17 -5 3 -10
-24 -11 -61 -2 -93 -6 -130 -14 -137 -4 -4 -4 -13 -2 -20 5 -12 -30 -32 -48
-27 -4 1 -4 -6 -1 -15 5 -13 2 -15 -16 -10 -13 3 -20 3 -17 0 6 -6 -36 -40
-42 -35 -2 2 -12 -6 -21 -17 -10 -11 -21 -18 -25 -14 -3 3 -6 1 -6 -5 0 -7 -6
-12 -14 -12 -8 0 -17 -7 -20 -16 -3 -8 -10 -13 -15 -9 -5 3 -12 1 -16 -5 -4
-6 -11 -8 -16 -5 -5 4 -6 -2 -2 -12 3 -10 3 -15 -2 -11 -7 7 -93 -45 -106 -64
-3 -5 -15 -10 -27 -11 -11 0 -20 -6 -19 -12 1 -5 -4 -9 -10 -7 -7 1 -13 -3
-13 -10 0 -6 -3 -9 -6 -5 -6 5 -15 0 -49 -31 -8 -7 -15 -11 -15 -7 0 3 -10 -1
-23 -10 -13 -8 -27 -12 -32 -8 -4 5 -5 3 -1 -4 3 -7 -2 -14 -14 -18 -11 -3
-20 -11 -20 -16 0 -5 -3 -8 -7 -7 -5 2 -25 -8 -45 -20 -21 -13 -43 -20 -49
-16 -7 4 -9 3 -6 -3 9 -14 -40 -46 -55 -37 -6 4 -8 3 -5 -3 4 -6 -10 -18 -33
-27 -22 -9 -40 -21 -40 -27 0 -5 -4 -8 -9 -4 -5 3 -12 1 -16 -5 -4 -6 -11 -8
-16 -5 -5 4 -9 2 -9 -4 0 -10 -38 -27 -52 -23 -5 1 -8 -6 -8 -15 0 -9 -3 -13
-6 -10 -4 3 -18 -3 -32 -13 -19 -16 -28 -17 -39 -9 -11 10 -12 8 -7 -7 4 -10
3 -16 -1 -12 -5 5 -23 -3 -40 -17 -18 -13 -36 -21 -39 -17 -4 3 -11 0 -16 -8
-5 -8 -13 -16 -17 -16 -24 -4 -53 -17 -53 -24 0 -6 -14 -13 -50 -24 -3 -1 -12
-6 -20 -11 -8 -5 -22 -10 -30 -12 -8 -1 -16 -7 -18 -13 -2 -5 -8 -8 -13 -4 -5
3 -9 0 -9 -6 0 -6 -4 -8 -10 -5 -5 3 -10 1 -10 -5 0 -6 -4 -8 -10 -5 -5 3 -10
1 -10 -6 0 -7 -3 -9 -7 -6 -3 4 -15 -1 -26 -10 -15 -13 -18 -14 -12 -3 6 11 3
10 -12 -2 -11 -10 -26 -18 -34 -18 -8 0 -20 -5 -26 -11 -9 -9 -20 -9 -42 1
-17 7 -31 16 -31 21 0 5 -11 9 -25 9 -14 0 -25 5 -25 12 0 6 -3 8 -7 5 -3 -4
-12 -2 -20 4 -7 6 -13 8 -13 3 0 -5 -4 -4 -8 1 -4 6 -38 26 -77 44 -38 19 -72
37 -75 40 -3 3 -12 6 -20 6 -8 0 -14 6 -12 13 1 8 -3 12 -10 9 -14 -5 -138 58
-150 77 -4 6 -8 8 -8 3 0 -9 -82 32 -91 45 -3 5 -10 10 -15 10 -20 1 -34 11
-28 19 3 5 2 8 -3 7 -11 -4 -107 44 -111 55 -2 4 -10 7 -17 7 -8 0 -18 7 -23
16 -5 9 -13 15 -18 15 -16 -1 -44 10 -44 18 0 4 -16 13 -35 20 -19 7 -33 17
-29 22 3 5 2 8 -3 7 -12 -4 -73 25 -73 34 0 5 -7 8 -15 8 -8 0 -15 4 -15 8 0
5 -16 14 -35 22 -19 7 -37 20 -40 27 -2 8 -9 11 -15 8 -5 -3 -10 -1 -10 4 0 6
-7 11 -15 11 -8 0 -15 5 -15 10 0 6 -6 10 -13 10 -7 0 -22 8 -33 18 -10 9 -31
23 -46 31 -16 8 -28 18 -28 23 0 4 -7 8 -15 8 -8 0 -15 3 -15 8 0 4 -14 13
-30 20 -17 8 -28 18 -24 23 3 5 -4 9 -15 9 -12 0 -21 5 -21 10 0 6 -5 10 -10
10 -11 0 -24 10 -61 43 -10 9 -19 14 -19 10 0 -4 -7 3 -16 15 -9 13 -13 26
-10 29 3 3 1 13 -6 20 -9 11 -9 17 3 24 12 7 12 9 -1 9 -13 0 -13 1 0 10 13 9
13 10 0 10 -13 0 -13 1 0 10 13 9 13 10 0 10 -13 0 -13 1 0 10 8 5 10 10 4 10
-6 0 -10 16 -9 35 1 19 -1 35 -4 35 -9 0 -5 106 5 121 4 7 3 10 -3 6 -6 -4
-13 4 -15 18 -3 14 -1 25 4 25 5 0 6 5 2 11 -11 18 -10 149 1 149 6 0 4 4 -4
9 -7 5 -10 14 -7 20 4 6 2 11 -5 11 -8 0 -8 4 1 15 10 12 10 15 0 15 -10 0
-10 3 0 15 7 8 8 15 3 15 -5 0 -8 15 -6 33 2 17 4 37 3 42 0 6 -1 43 -3 83 -1
41 2 72 7 72 6 0 5 5 -2 12 -8 8 -9 15 -1 25 9 10 8 13 -1 13 -10 0 -10 3 0
15 7 8 8 15 3 15 -11 0 -11 29 1 48 4 7 2 12 -5 12 -8 0 -8 4 1 15 7 8 8 15 3
15 -5 0 -10 7 -10 15 0 8 5 15 10 15 5 0 4 7 -3 15 -10 12 -10 15 1 15 10 0
10 3 1 12 -7 7 -8 17 -1 30 7 12 6 18 -1 18 -7 0 -8 6 -1 17 6 11 6 24 0 35
-7 13 -6 18 3 18 9 0 9 3 1 11 -8 8 -8 20 -3 34 5 13 6 26 3 29 -4 3 -1 6 7 6
10 0 10 3 0 15 -9 11 -9 15 -1 15 7 0 9 5 5 12 -12 19 -4 163 10 186 4 7 2 12
-4 12 -8 0 -8 6 0 20 8 14 8 20 0 20 -7 0 -8 6 -2 18 5 9 9 36 8 60 0 23 2 42
6 42 3 0 4 9 1 20 -3 11 0 20 6 20 6 0 11 7 11 16 0 10 6 14 15 10 9 -3 15 0
15 10 0 11 5 14 17 10 10 -4 14 -4 11 0 -8 8 14 34 25 27 4 -2 7 1 7 6 0 6 6
11 14 11 8 0 17 7 20 16 4 9 9 14 12 11 6 -5 15 1 49 31 8 7 15 10 15 5 0 -4
4 -3 8 4 4 6 14 13 22 15 8 2 23 12 33 22 9 10 17 16 17 13 0 -4 9 2 21 14 11
11 27 18 35 15 8 -3 13 -2 11 2 -5 6 19 35 25 31 4 -3 91 52 98 61 6 7 30 17
44 18 5 0 13 7 18 16 5 9 13 14 19 11 5 -4 9 -1 9 4 0 6 6 11 13 11 7 0 23 9
34 19 12 11 24 17 27 14 3 -4 6 -1 6 6 0 7 5 9 10 6 6 -3 10 -1 10 5 0 6 5 8
10 5 6 -3 10 -2 10 2 0 12 56 44 64 36 3 -3 6 -1 6 5 0 7 7 12 15 12 8 0 15 4
15 10 0 5 11 12 25 16 14 3 25 10 25 15 0 5 3 8 8 7 4 -1 17 3 28 10 12 6 25
8 29 4 5 -4 6 -2 2 3 -3 6 3 17 15 24 16 10 19 10 12 -1 -4 -7 2 -4 14 6 12
11 22 16 22 13 0 -4 9 2 21 14 12 12 27 18 37 14 9 -3 13 -3 9 1 -9 9 135 84
147 76 5 -3 6 0 2 6 -6 11 6 16 27 13 4 0 7 4 7 9 0 6 3 9 8 8 4 -1 19 6 34
16 16 10 35 16 43 12 11 -4 14 -2 9 6 -5 8 -2 9 9 5 10 -4 16 -2 14 5 -1 7 3
13 8 13 17 2 90 39 93 48 2 4 11 2 20 -5 10 -9 13 -9 9 -1 -9 14 19 32 45 30
10 -1 18 -8 18 -17z m1815 -1110 c-3 -5 2 -10 12 -10 10 0 25 -9 33 -20 8 -11
18 -20 23 -20 4 0 19 -10 33 -22 13 -13 33 -30 44 -40 10 -9 22 -13 26 -10 4
4 4 -1 1 -10 -3 -10 -3 -17 1 -17 22 4 42 -2 37 -11 -3 -5 -1 -10 5 -10 6 0 8
-5 4 -12 -4 -7 -3 -8 5 -4 7 5 23 -3 39 -18 15 -14 41 -39 59 -56 18 -16 37
-30 43 -30 6 0 8 -4 5 -10 -3 -5 -1 -10 5 -10 13 0 41 -26 211 -191 65 -65
119 -123 119 -130 0 -11 -194 -209 -205 -209 -3 0 -10 0 -16 0 -5 0 -8 -4 -5
-9 7 -11 -29 -43 -38 -34 -4 5 -6 3 -5 -2 5 -13 -32 -55 -47 -55 -7 0 -15 -7
-18 -16 -3 -8 -11 -12 -16 -9 -6 4 -9 1 -8 -7 2 -7 -3 -12 -10 -10 -8 1 -11
-2 -8 -7 8 -13 -21 -34 -35 -25 -7 4 -9 3 -6 -3 5 -8 -33 -51 -40 -45 -2 1
-16 -12 -31 -28 -16 -16 -32 -27 -35 -23 -4 3 -7 1 -7 -6 0 -7 -5 -9 -10 -6
-6 4 -9 1 -8 -5 2 -7 -5 -17 -16 -23 -10 -7 -29 -22 -42 -35 -14 -13 -29 -20
-37 -16 -6 4 -9 4 -5 -1 11 -12 -21 -38 -39 -31 -13 5 -14 4 -3 -9 13 -15 3
-20 -15 -7 -12 8 -13 42 -2 60 5 7 3 12 -4 12 -8 0 -9 3 0 13 6 8 8 17 4 20
-3 4 0 13 7 22 8 10 9 15 1 15 -6 0 -11 5 -11 11 0 5 6 7 13 3 9 -5 9 -4 0 6
-9 10 -10 17 -2 27 8 9 8 13 1 13 -7 0 -8 10 -2 30 5 18 5 30 -1 30 -5 0 -9 5
-9 11 0 5 5 7 11 3 8 -5 9 -2 1 12 -7 12 -7 25 -1 36 7 12 6 18 -1 18 -8 0 -8
6 0 20 8 15 8 20 -2 21 -10 0 -10 2 0 6 6 2 10 8 7 13 -3 5 -1 20 5 34 6 17 6
27 -1 32 -8 4 -7 10 2 16 11 8 11 11 1 15 -10 4 -10 8 -1 19 9 11 9 14 -1 14
-10 0 -10 3 0 15 9 11 9 15 1 15 -7 0 -9 6 -4 18 10 21 10 53 0 69 -4 6 -2 15
4 19 8 4 7 9 -2 15 -12 7 -12 9 0 9 11 0 11 3 1 15 -7 9 -8 15 -2 15 11 0 11
18 -1 38 -5 7 -3 12 3 12 6 0 8 5 4 11 -4 7 -8 26 -10 43 -2 17 -6 41 -8 54
-3 13 0 22 7 22 7 0 6 4 -3 10 -11 7 -11 10 -2 10 7 0 10 5 7 11 -4 6 -8 24
-9 40 -2 22 1 28 12 24 12 -4 12 -3 3 9 -17 20 -22 56 -8 56 7 0 6 4 -3 10
-10 6 -11 10 -3 10 9 0 10 7 3 26 -6 14 -8 29 -5 34 3 5 1 12 -5 15 -8 5 -7
11 1 21 6 8 8 14 3 14 -5 0 -8 15 -7 32 2 39 2 38 9 38 3 0 2 -4 -1 -10z
m-3681 -27 c-3 -15 -7 -30 -10 -35 -3 -4 0 -8 6 -8 8 0 8 -6 0 -20 -8 -14 -8
-20 0 -20 8 0 8 -6 0 -20 -8 -14 -8 -20 0 -20 7 0 8 -6 0 -19 -5 -11 -6 -21
-1 -23 4 -2 6 -20 3 -40 -2 -21 -8 -35 -13 -32 -5 3 -5 -6 1 -20 8 -22 7 -26
-8 -26 -16 -1 -16 -1 1 -11 9 -5 17 -15 17 -20 0 -6 -6 -7 -12 -3 -9 5 -9 2 1
-9 11 -14 11 -17 0 -17 -10 0 -10 -3 -1 -12 16 -16 15 -31 0 -22 -9 5 -9 2 1
-9 11 -14 11 -17 0 -17 -10 0 -10 -3 -1 -12 14 -14 16 -32 3 -23 -5 3 -13 0
-17 -6 -4 -7 -3 -9 4 -5 6 3 13 2 17 -4 3 -5 1 -10 -5 -10 -6 0 -8 -5 -3 -12
7 -13 7 -168 -1 -176 -3 -2 -1 -15 4 -28 7 -17 6 -24 -2 -24 -9 0 -9 -3 0 -12
16 -16 15 -31 0 -22 -9 5 -9 2 1 -9 11 -14 11 -17 0 -17 -10 0 -10 -3 -1 -12
16 -16 15 -31 0 -22 -9 5 -9 2 1 -9 11 -14 11 -17 0 -17 -10 0 -10 -3 -1 -12
19 -19 14 -32 -5 -17 -15 11 -14 10 1 -9 14 -16 15 -22 6 -22 -11 0 -11 -3 -2
-12 16 -16 15 -31 0 -22 -9 5 -9 2 1 -9 10 -13 10 -17 1 -17 -9 0 -9 -4 -3
-12 6 -7 9 -21 8 -30 -2 -10 1 -18 6 -18 6 0 5 -8 -1 -20 -8 -14 -8 -20 0 -20
8 0 8 -6 0 -20 -8 -14 -8 -20 0 -20 8 0 8 -6 0 -20 -6 -12 -7 -20 -1 -20 11 0
9 -19 -3 -39 -5 -7 -5 -16 1 -20 11 -7 12 -51 1 -51 -4 0 -8 5 -8 11 0 5 -4 8
-9 4 -5 -3 -17 5 -25 17 -9 12 -16 19 -16 14 0 -5 -10 2 -23 15 -13 13 -33 30
-45 38 -11 8 -18 19 -15 24 3 6 1 7 -5 3 -14 -8 -53 24 -45 37 3 6 1 7 -5 3
-7 -4 -12 0 -13 11 0 11 -3 13 -6 5 -6 -16 -33 3 -33 25 0 8 -4 12 -9 9 -8 -6
-66 42 -157 132 -24 23 -46 42 -50 42 -11 0 -69 64 -66 72 1 5 -4 7 -11 5 -6
-1 -11 5 -9 13 2 8 1 12 -3 8 -10 -10 -45 24 -38 36 3 6 3 8 -1 4 -9 -7 -16
-2 -76 54 -22 20 -40 43 -40 51 0 7 21 31 46 53 25 21 64 57 86 79 22 22 44
39 49 37 5 -1 9 2 9 7 0 6 11 22 25 37 14 15 25 24 25 21 0 -3 22 16 49 41 26
26 67 63 91 82 23 19 52 45 63 58 11 12 27 22 34 22 7 0 13 5 13 11 0 5 5 7
12 3 6 -4 8 -3 5 3 -3 5 3 17 14 26 10 9 19 15 19 12 0 -2 13 8 29 23 60 56
83 72 94 65 7 -3 9 -3 5 2 -8 8 28 45 43 45 4 0 5 -12 3 -27z m3313 -1903 c-1
-11 -4 -20 -8 -20 -4 0 -5 -10 -1 -22 4 -15 2 -19 -7 -13 -10 6 -11 3 -2 -12
6 -11 8 -22 6 -25 -3 -2 -7 -22 -11 -44 -3 -21 -10 -59 -15 -84 -6 -25 -11
-57 -11 -72 -1 -16 -6 -28 -11 -28 -5 0 -4 -7 3 -15 7 -8 8 -15 3 -15 -5 0
-10 -6 -10 -12 -3 -47 -9 -68 -18 -68 -5 0 -4 -4 4 -9 9 -6 10 -11 2 -15 -6
-4 -11 -17 -11 -30 0 -12 -6 -28 -12 -35 -11 -11 -10 -12 0 -6 11 6 12 3 4
-12 -6 -10 -13 -39 -17 -63 -4 -24 -10 -51 -15 -60 -4 -8 -6 -23 -5 -32 2 -10
0 -18 -5 -18 -5 0 -7 -8 -5 -17 1 -10 0 -22 -4 -28 -6 -11 -8 -16 -17 -60 -4
-16 -12 -33 -18 -37 -8 -6 -8 -8 1 -8 16 0 -8 -50 -25 -50 -7 0 -11 4 -8 9 3
4 -6 6 -19 3 -15 -2 -25 0 -25 7 0 7 -4 10 -9 6 -5 -3 -29 1 -53 10 -24 8 -53
15 -65 15 -13 0 -23 4 -23 10 0 5 -3 9 -7 9 -24 -4 -53 2 -49 10 3 4 -6 7 -19
5 -14 -1 -31 4 -39 11 -7 8 -16 11 -20 8 -3 -3 -13 0 -23 8 -13 11 -15 11 -9
1 7 -12 4 -12 -15 -1 -13 7 -30 12 -38 10 -7 -1 -10 2 -6 9 4 7 1 10 -6 9 -15
-2 -68 10 -84 20 -10 6 -16 7 -36 10 -5 0 -8 4 -6 9 3 4 -11 8 -31 9 -19 1
-39 8 -43 15 -5 7 -9 9 -9 5 0 -5 -6 -5 -12 0 -7 4 -15 8 -18 8 -14 1 -157 59
-169 69 -12 9 -13 8 -6 -3 6 -10 4 -12 -4 -7 -7 5 -10 15 -6 25 5 13 4 14 -6
4 -7 -7 -17 -13 -22 -13 -20 0 26 32 48 34 13 0 23 6 22 11 -1 6 8 10 20 9 12
0 20 2 19 5 -4 6 15 27 24 28 3 0 24 10 48 22 23 12 48 19 54 15 7 -4 8 -3 4
4 -4 7 3 14 19 18 14 3 25 10 25 16 0 5 4 7 9 4 5 -3 12 1 15 9 3 8 9 14 13
13 4 -1 18 3 31 10 12 7 22 9 22 5 0 -4 5 0 11 10 6 9 14 15 19 12 5 -3 11 -1
15 5 4 6 11 7 17 4 6 -4 8 -2 4 4 -3 6 4 14 16 18 13 3 35 15 51 26 15 11 27
16 27 11 0 -4 5 0 11 10 6 9 14 15 20 12 5 -4 9 -1 9 5 0 7 7 9 16 6 8 -3 12
-2 9 3 -3 5 4 12 15 16 11 3 20 11 20 16 0 6 4 8 9 5 5 -3 14 1 21 9 7 8 32
25 56 37 24 12 44 25 44 29 0 4 10 11 22 15 12 3 28 13 36 20 7 8 18 11 24 8
6 -4 8 -2 5 3 -6 9 20 27 32 23 2 -1 7 2 10 7 3 4 15 15 25 23 18 13 19 13 12
0 -4 -8 0 -6 9 5 9 11 21 19 26 17 5 -1 12 5 15 13 3 8 10 12 15 9 5 -3 9 0 9
5 0 6 7 11 15 11 8 0 15 5 15 10 0 6 7 10 15 10 8 0 15 5 15 10 0 6 6 10 14
10 9 0 14 -9 13 -20z m-2887 -22 c0 -5 4 -6 10 -3 5 3 15 -3 22 -15 7 -11 18
-20 25 -20 7 0 13 -4 13 -10 0 -5 6 -9 13 -7 6 1 11 -4 9 -11 -1 -8 2 -11 7
-8 5 4 26 -5 47 -19 20 -14 41 -25 45 -25 5 0 9 -7 9 -15 0 -8 3 -14 8 -14 17
3 31 -2 44 -14 7 -7 26 -18 41 -25 17 -7 25 -17 21 -24 -5 -7 -3 -8 6 -3 7 4
15 2 20 -4 4 -7 15 -13 24 -15 10 -1 21 -8 25 -15 5 -7 11 -12 15 -12 20 3 26
0 21 -9 -3 -5 3 -10 14 -10 11 0 23 -4 26 -10 3 -5 14 -10 24 -10 10 0 25 -8
34 -18 9 -10 32 -24 52 -32 19 -8 35 -17 35 -22 0 -4 8 -8 18 -8 10 0 29 -10
42 -22 14 -13 26 -22 27 -20 8 6 34 1 29 -6 -4 -7 66 -46 84 -47 3 0 20 -11
39 -24 19 -14 31 -18 26 -10 -7 12 -6 12 11 -1 10 -8 22 -19 25 -23 3 -5 9 -8
13 -8 3 1 28 -10 55 -24 54 -27 80 -52 41 -40 -15 5 -20 4 -16 -4 4 -6 1 -12
-6 -13 -29 -3 -34 -4 -55 -16 -13 -7 -23 -10 -23 -8 0 3 -16 -3 -36 -14 -19
-11 -33 -16 -29 -10 4 6 -8 2 -26 -9 -18 -11 -36 -18 -41 -15 -4 3 -8 0 -8 -7
0 -7 -3 -10 -6 -7 -3 4 -21 0 -40 -8 -19 -8 -34 -11 -34 -7 0 4 -5 2 -12 -5
-7 -7 -20 -12 -30 -12 -10 0 -18 -5 -18 -12 0 -6 -3 -9 -6 -5 -3 3 -24 -1 -46
-9 -22 -7 -45 -11 -51 -7 -5 3 -7 1 -4 -4 8 -13 -79 -37 -95 -27 -7 5 -8 2 -3
-6 6 -10 2 -12 -18 -8 -15 3 -25 1 -24 -6 1 -5 -8 -11 -20 -12 -13 -1 -26 -3
-30 -4 -5 -1 -11 -2 -15 -1 -5 0 -8 -3 -8 -8 0 -5 -11 -8 -25 -6 -14 1 -25 -1
-25 -5 0 -6 -7 -8 -50 -12 -11 -1 -20 -6 -20 -11 0 -4 -4 -6 -9 -2 -5 3 -13 1
-16 -5 -5 -8 -12 -7 -23 2 -12 10 -14 10 -8 1 4 -8 2 -11 -7 -7 -7 2 -14 11
-14 19 0 8 4 12 8 9 4 -2 1 9 -7 26 -9 16 -13 34 -10 39 4 5 1 11 -5 13 -5 2
-11 18 -11 36 -1 17 -5 32 -9 32 -4 0 -6 9 -4 20 2 11 0 20 -4 20 -5 0 -8 10
-7 23 1 12 -3 25 -9 29 -6 5 -4 8 5 8 12 0 13 2 1 9 -7 5 -14 23 -15 40 0 17
-5 31 -10 31 -4 0 -6 9 -3 20 3 11 1 23 -4 26 -5 3 -7 9 -4 14 3 5 1 19 -6 31
-7 14 -7 19 0 15 5 -4 4 4 -3 18 -7 14 -12 39 -11 55 1 17 -2 28 -6 25 -5 -3
-7 9 -5 25 2 17 0 31 -5 31 -4 0 -6 9 -4 20 2 11 -1 20 -7 20 -7 0 -6 5 1 14
7 8 8 17 3 20 -5 3 -13 27 -16 53 -4 27 -9 57 -12 68 -2 11 -5 35 -6 53 -1 18
-5 35 -10 38 -4 3 -6 9 -3 14 7 11 55 -9 55 -22z m1440 -774 c0 5 6 3 13 -3 8
-6 17 -8 20 -4 4 3 7 1 7 -6 0 -7 5 -9 10 -6 6 3 10 2 10 -4 0 -6 7 -8 15 -5
8 4 17 -1 21 -9 3 -9 12 -13 19 -11 7 3 16 1 20 -5 3 -6 15 -11 26 -11 10 0
19 -4 19 -8 0 -5 6 -9 13 -10 26 -2 87 -29 80 -36 -4 -4 0 -4 10 0 9 3 17 1
17 -5 0 -6 7 -8 15 -5 8 4 15 2 15 -3 0 -5 10 -9 22 -10 11 -1 24 -6 27 -10 3
-4 17 -10 31 -12 14 -1 28 -8 32 -15 4 -6 8 -7 8 -3 0 5 6 5 13 0 12 -8 17 -9
38 -12 5 0 8 -5 5 -9 -3 -5 5 -8 17 -7 12 1 31 -4 43 -12 11 -7 24 -10 27 -6
4 3 7 2 7 -3 0 -5 12 -11 27 -12 15 -1 30 -7 34 -14 4 -6 14 -8 23 -5 9 4 16
2 16 -4 0 -6 5 -7 10 -4 6 3 10 2 10 -2 0 -7 73 -31 108 -35 6 -1 12 -4 12 -8
0 -4 6 -7 13 -8 39 -5 54 -9 67 -17 8 -5 23 -8 33 -7 9 2 17 -1 17 -5 0 -5 14
-10 32 -11 18 -2 35 -6 38 -10 3 -4 14 -8 25 -9 16 -2 49 -8 63 -12 1 -1 4 0
5 2 2 1 11 -4 19 -11 16 -13 13 -52 -3 -52 -5 0 -5 -7 -2 -17 4 -10 2 -14 -5
-9 -7 4 -10 -1 -7 -14 2 -11 -1 -22 -6 -25 -5 -4 -7 -10 -4 -15 3 -4 -2 -13
-10 -20 -8 -7 -12 -16 -9 -21 3 -5 -1 -19 -8 -31 -7 -13 -11 -26 -10 -30 1 -5
-3 -8 -10 -8 -6 0 -8 -3 -5 -6 3 -4 1 -16 -5 -28 -7 -11 -13 -25 -15 -31 -8
-34 -30 -84 -35 -80 -5 6 -22 -53 -19 -67 0 -5 -4 -8 -9 -8 -6 0 -10 -9 -10
-20 0 -11 -3 -20 -7 -20 -5 0 -21 -29 -38 -65 -16 -36 -33 -65 -38 -65 -4 0
-6 -4 -3 -8 7 -12 -29 -64 -38 -55 -4 4 -4 0 -1 -9 4 -9 1 -19 -4 -23 -6 -3
-9 -11 -6 -16 4 -5 1 -9 -4 -9 -6 0 -11 -7 -11 -15 0 -9 -7 -18 -15 -21 -8 -4
-15 -12 -15 -20 0 -8 -9 -23 -19 -33 -11 -11 -17 -22 -13 -25 3 -3 0 -6 -7 -6
-7 0 -9 -4 -6 -10 3 -5 2 -10 -4 -10 -5 0 -13 -9 -16 -20 -4 -11 -11 -17 -17
-14 -6 4 -8 3 -5 -3 9 -14 -22 -55 -35 -47 -6 4 -8 3 -5 -3 4 -5 -5 -25 -18
-43 -14 -19 -25 -30 -26 -24 0 5 -4 -1 -10 -14 -5 -14 -13 -20 -20 -16 -8 5
-9 3 -5 -5 10 -15 -23 -53 -38 -44 -6 3 -8 3 -4 -2 10 -11 -11 -37 -23 -29 -5
3 -8 1 -7 -4 5 -14 -63 -73 -76 -65 -6 3 -8 3 -4 -2 8 -8 -15 -35 -30 -35 -6
0 -13 -7 -16 -16 -3 -8 -10 -12 -16 -9 -5 3 -10 -1 -10 -9 0 -9 -3 -15 -7 -15
-22 4 -33 -2 -27 -13 5 -8 2 -9 -9 -5 -10 3 -17 2 -17 -3 0 -6 -7 -10 -15 -10
-8 0 -15 -4 -15 -9 0 -5 -13 -12 -30 -16 -16 -4 -30 -10 -30 -14 0 -4 -7 -8
-15 -9 -8 -1 -22 -3 -30 -4 -8 -1 -15 -5 -15 -9 0 -4 -11 -6 -25 -5 -14 2 -22
-1 -18 -7 4 -6 -4 -8 -20 -5 -15 3 -24 1 -21 -3 3 -5 0 -9 -5 -10 -37 -3 -58
-2 -68 4 -6 4 -15 3 -18 -3 -5 -8 -11 -7 -21 1 -11 9 -14 8 -14 -2 0 -12 -2
-12 -9 0 -6 9 -11 10 -15 2 -4 -6 -13 -8 -19 -4 -13 8 -28 11 -64 15 -13 1
-23 5 -23 8 0 3 -11 7 -26 8 -14 1 -34 7 -45 12 -10 6 -19 7 -19 3 0 -4 -4 -2
-9 5 -4 7 -16 14 -25 16 -10 1 -21 8 -25 15 -5 7 -12 13 -17 14 -5 1 -8 5 -7
9 2 4 -3 5 -11 2 -7 -3 -20 1 -27 8 -8 7 -26 19 -41 27 -16 8 -28 21 -28 28 0
8 -4 12 -8 9 -12 -7 -104 79 -94 88 4 4 2 6 -5 4 -16 -4 -114 102 -106 115 3
5 1 7 -4 4 -11 -7 -49 41 -45 55 1 5 -4 7 -11 5 -6 -1 -11 6 -11 15 1 10 -1
16 -5 15 -3 -1 -8 3 -10 8 -2 6 -11 15 -20 22 -9 7 -12 13 -7 13 5 0 0 8 -12
18 -11 10 -22 24 -24 31 -2 8 -13 25 -26 39 -12 14 -20 32 -17 39 2 8 0 11 -5
8 -6 -3 -10 0 -10 8 0 7 -8 22 -18 33 -11 11 -18 27 -16 37 1 10 -2 14 -9 10
-6 -4 -8 0 -4 10 4 10 2 16 -6 14 -7 -1 -12 5 -12 13 0 8 -6 21 -12 28 -7 7
-13 20 -13 28 0 8 -5 14 -11 14 -6 0 -9 7 -5 15 3 8 1 15 -4 15 -6 0 -10 6
-10 14 0 7 -7 19 -15 26 -9 7 -13 15 -10 18 3 3 -2 16 -10 29 -9 13 -13 23
-11 23 2 0 -6 21 -19 47 -13 25 -22 50 -19 55 3 4 1 8 -4 8 -8 0 -37 73 -37
93 0 4 -7 12 -15 17 -13 9 -13 10 0 10 12 1 11 3 -3 11 -9 6 -14 15 -11 21 4
6 0 14 -7 19 -12 7 -12 9 0 9 11 0 11 3 -3 13 -10 7 -18 28 -19 49 -1 20 -6
36 -12 35 -8 -2 -10 7 -6 49 1 10 7 14 16 11 8 -4 17 -2 21 4 3 6 12 8 19 5 7
-2 16 -2 19 2 8 8 34 14 68 16 14 0 26 6 25 11 -1 6 4 9 12 7 7 -1 19 3 27 9
11 9 14 8 15 -7 0 -16 2 -15 10 4 5 13 13 21 19 17 5 -3 18 -1 28 4 13 7 23 6
31 -2 10 -9 11 -8 6 5 -5 12 -2 16 12 14 10 -2 23 1 30 6 7 5 18 6 24 2 8 -4
9 -3 5 4 -4 8 0 12 12 12 10 0 22 3 26 7 12 12 40 12 56 0 13 -11 13 -10 1 6
-12 15 -11 17 13 17 14 0 26 5 26 11 0 5 3 8 8 6 4 -3 24 3 45 13 20 10 37 14
37 8 0 -5 7 -2 16 6 8 9 20 14 25 11 5 -4 9 -1 9 4 0 6 8 11 18 11 10 0 23 5
30 12 9 9 12 9 12 -2 1 -11 4 -10 15 4 7 10 18 15 24 11 6 -3 11 -1 11 4 0 6
6 11 14 11 8 0 27 5 43 11 15 6 28 9 29 7 0 -2 7 2 15 8 8 6 26 14 42 18 15 3
27 11 27 16 0 6 5 10 11 10 5 0 7 -6 4 -12 -4 -7 0 -5 8 4 8 10 17 15 20 11 4
-3 7 -1 7 6 0 7 4 10 9 7 4 -3 28 4 52 16 24 12 47 23 52 24 4 1 10 3 15 4 4
1 10 2 15 1 4 0 7 3 7 8 0 13 44 18 52 6 4 -5 8 -6 8 -1z"/>
<path d="M4260 4989 c0 -7 -3 -9 -7 -6 -3 4 -12 2 -19 -4 -8 -7 -14 -7 -19 1
-5 8 -11 8 -21 -1 -11 -9 -14 -9 -14 0 0 7 -5 9 -10 6 -6 -4 -7 -12 -3 -18 3
-7 -4 -3 -17 8 -13 11 -20 14 -16 8 5 -9 0 -13 -14 -13 -14 0 -19 -4 -14 -12
5 -9 2 -9 -9 1 -13 10 -17 10 -17 1 0 -9 -4 -9 -17 1 -11 10 -14 10 -9 2 4 -8
1 -13 -8 -13 -9 0 -16 -6 -16 -12 0 -10 -3 -9 -9 1 -5 8 -10 9 -12 2 -2 -6
-15 -12 -29 -13 -14 -2 -29 -12 -33 -23 -6 -15 -10 -16 -16 -6 -6 9 -11 10
-15 2 -4 -6 -4 -17 0 -23 5 -9 2 -9 -9 1 -11 9 -17 10 -17 2 0 -6 -7 -11 -16
-11 -9 0 -12 -5 -8 -12 5 -7 0 -9 -14 -6 -16 4 -19 2 -15 -10 4 -10 2 -13 -5
-8 -8 4 -12 0 -12 -11 0 -15 -2 -16 -10 -3 -7 11 -10 11 -10 2 0 -8 -5 -10
-12 -6 -8 5 -7 0 2 -11 9 -11 10 -16 3 -11 -8 4 -13 2 -13 -4 0 -6 -3 -9 -7
-7 -5 3 -14 -1 -21 -9 -7 -8 -10 -14 -6 -14 3 0 1 -7 -6 -15 -7 -8 -16 -12
-21 -9 -5 3 -6 -3 -2 -12 4 -12 3 -15 -5 -10 -7 4 -12 2 -12 -4 0 -6 -5 -8
-12 -4 -10 6 -10 4 0 -8 10 -13 10 -17 -3 -22 -9 -3 -13 -11 -9 -17 4 -7 3 -9
-3 -6 -5 3 -18 -8 -28 -25 -13 -22 -14 -29 -4 -24 10 5 9 3 -1 -6 -16 -14 -44
-66 -45 -83 0 -5 -7 -16 -15 -22 -12 -10 -12 -14 -2 -21 10 -7 10 -14 -1 -35
-8 -15 -18 -23 -23 -19 -4 4 -2 -1 5 -10 11 -15 11 -18 0 -18 -10 0 -10 -3 -2
-11 13 -13 6 -42 -8 -33 -5 3 -9 1 -9 -5 0 -5 8 -15 18 -20 16 -10 16 -10 0
-11 -21 0 -21 -1 -8 -34 8 -22 7 -26 -7 -26 -14 0 -14 -2 3 -15 12 -9 14 -14
6 -15 -7 0 -10 -5 -7 -10 4 -6 11 -7 17 -4 7 5 8 2 2 -7 -14 -23 -14 -41 2
-35 11 4 10 -1 -3 -21 -17 -25 -17 -27 -1 -21 12 5 15 3 11 -8 -3 -8 0 -21 7
-29 10 -12 10 -15 0 -15 -9 0 -8 -5 3 -18 13 -15 14 -21 4 -31 -9 -10 -8 -11
7 -5 13 5 17 4 13 -3 -4 -6 0 -16 8 -23 10 -8 12 -17 6 -24 -10 -12 11 -50 22
-39 6 6 11 -12 8 -29 0 -5 4 -8 10 -8 5 0 7 -5 3 -12 -5 -7 -2 -9 9 -5 11 4
15 1 12 -13 -2 -11 1 -19 8 -17 7 1 12 -5 12 -13 1 -24 15 -40 30 -33 11 4 13
1 8 -13 -5 -14 -3 -16 12 -11 16 7 16 5 4 -10 -9 -10 -9 -14 -2 -10 7 5 17 0
24 -12 7 -11 19 -17 27 -13 9 3 13 1 10 -4 -6 -9 13 -32 29 -37 5 -1 7 -6 5
-11 -2 -5 4 -6 13 -2 9 3 23 -3 32 -14 9 -10 20 -17 25 -14 4 3 8 0 8 -5 0 -6
9 -11 21 -11 11 0 17 -4 14 -10 -3 -5 0 -7 8 -4 8 3 21 -2 30 -10 12 -12 17
-13 20 -3 4 9 6 9 6 0 1 -7 8 -13 16 -13 8 0 15 -6 15 -12 0 -9 4 -8 10 2 9
13 10 13 10 0 0 -12 2 -13 9 -1 6 9 10 10 12 2 3 -7 19 -13 37 -13 17 -1 32
-4 32 -7 0 -11 64 -7 72 4 5 6 8 3 8 -7 0 -9 4 -20 10 -23 6 -4 7 1 3 12 -6
16 -5 16 10 4 13 -10 17 -10 17 -1 0 7 7 10 16 6 8 -3 13 -2 10 3 -6 10 51 7
61 -2 3 -4 12 -2 19 4 8 6 21 9 29 5 9 -3 13 -2 10 3 -3 5 -1 12 5 16 5 3 10
0 10 -7 0 -10 2 -10 9 1 5 7 14 10 20 7 6 -4 11 0 11 11 0 10 4 14 8 8 11 -16
35 -18 29 -2 -3 9 1 14 11 14 35 0 43 3 37 14 -4 6 0 9 11 7 11 -2 18 2 16 10
-2 10 2 10 19 2 11 -7 23 -9 27 -6 3 3 0 6 -7 6 -7 0 -9 5 -6 11 4 6 13 8 21
5 8 -3 13 0 11 7 -1 7 6 11 15 11 11 -1 15 4 10 15 -5 14 -4 14 11 2 15 -12
17 -12 12 2 -4 10 1 17 14 22 12 3 19 11 16 16 -6 8 8 13 27 10 4 0 4 7 1 16
-4 10 -2 14 4 10 11 -7 28 20 24 37 -1 5 5 3 14 -4 9 -7 15 -9 14 -4 -4 21 2
35 11 29 6 -3 10 -2 10 4 0 5 -6 12 -12 14 -12 5 17 11 35 8 5 -1 6 3 2 9 -3
6 -12 8 -18 4 -7 -3 -1 3 12 14 16 13 20 21 12 26 -17 11 -3 26 16 19 12 -5
15 -2 10 9 -3 10 1 19 10 22 9 4 13 14 10 26 -3 12 -1 17 5 14 5 -3 8 2 6 12
-2 11 2 18 8 17 12 -2 12 26 -1 46 -5 10 -4 12 3 7 11 -6 16 6 13 27 0 4 3 7
8 7 5 0 7 9 4 20 -3 11 -2 28 2 37 11 25 12 44 3 70 -4 14 -3 23 5 27 9 3 8 7
-3 15 -13 10 -13 11 0 11 13 0 13 1 0 10 -13 9 -13 11 0 20 13 8 13 11 1 19
-8 5 -11 16 -8 25 4 9 -1 20 -11 25 -15 9 -15 10 3 11 20 1 20 1 1 15 -14 11
-16 15 -5 15 11 0 12 2 1 9 -8 4 -13 11 -13 15 3 20 0 26 -11 20 -7 -5 -8 -3
-2 7 15 24 13 58 -3 52 -12 -5 -12 -7 -1 -15 11 -8 10 -9 -1 -6 -8 2 -15 12
-17 21 -1 9 1 15 6 12 4 -3 6 4 3 15 -3 11 -12 20 -19 20 -8 0 -14 9 -14 20 0
11 -6 20 -12 20 -9 0 -8 4 2 10 13 8 12 10 -4 10 -12 0 -16 5 -13 14 4 9 -2
17 -14 21 -11 4 -18 9 -15 13 4 3 -6 14 -21 24 -16 10 -23 18 -17 18 5 0 16
-6 24 -12 8 -7 6 -3 -4 9 -10 13 -22 20 -27 18 -4 -3 -10 4 -14 15 -4 11 -11
18 -16 15 -5 -4 -9 1 -9 10 0 11 -5 15 -14 12 -11 -4 -13 -1 -9 10 4 11 2 14
-5 9 -7 -4 -12 -2 -12 5 0 7 -3 10 -6 7 -3 -4 -18 7 -33 23 -22 23 -30 26 -41
16 -7 -7 -10 -7 -8 -2 3 6 0 15 -7 22 -11 10 -15 10 -18 0 -3 -7 -6 -4 -6 6
-1 11 -6 15 -13 11 -6 -4 -17 1 -25 11 -9 13 -13 14 -13 5 0 -9 -5 -8 -16 6
-8 10 -12 13 -9 5 6 -10 2 -10 -16 2 -13 8 -36 14 -51 13 -14 -1 -25 1 -22 5
2 4 -3 12 -11 19 -13 11 -14 10 -8 -6 6 -16 4 -17 -9 -7 -8 7 -18 10 -21 6 -4
-3 -7 -2 -7 4 0 11 -41 10 -59 -2 -6 -3 -11 -1 -11 6 0 8 -5 7 -17 -2 -10 -8
-14 -9 -10 -2 4 6 3 14 -3 18 -5 3 -10 1 -10 -6z m325 -478 c3 -5 2 -12 -3
-15 -5 -3 -9 1 -9 9 0 17 3 19 12 6z m65 -191 c0 -5 -2 -10 -4 -10 -3 0 -8 5
-11 10 -3 6 -1 10 4 10 6 0 11 -4 11 -10z m-775 -100 c-3 -5 -12 -10 -18 -10
-7 0 -6 4 3 10 19 12 23 12 15 0z m35 -100 c0 -5 -5 -10 -11 -10 -5 0 -7 5 -4
10 3 6 8 10 11 10 2 0 4 -4 4 -10z m475 -220 c3 -5 1 -10 -4 -10 -6 0 -11 5
-11 10 0 6 2 10 4 10 3 0 8 -4 11 -10z"/>
<path d="M5106 8315 c-6 -16 -9 -17 -16 -5 -8 12 -10 11 -10 -5 0 -12 -3 -16
-8 -9 -4 7 -21 11 -39 11 -21 -1 -29 -5 -23 -12 6 -8 -2 -10 -27 -7 -28 4 -34
2 -27 -9 6 -11 3 -10 -11 1 -11 9 -16 10 -11 3 4 -7 2 -14 -3 -14 -6 -1 -17
-2 -23 -3 -7 -1 -12 -8 -10 -14 2 -10 -3 -10 -18 -2 -11 6 -20 7 -19 3 3 -19
-2 -33 -12 -33 -5 0 -7 6 -4 13 4 6 0 4 -8 -5 -8 -10 -18 -14 -22 -10 -5 4 -5
-1 -2 -10 4 -13 2 -15 -10 -11 -13 5 -15 2 -10 -12 7 -16 5 -16 -10 -4 -15 12
-16 12 -10 -3 4 -11 2 -15 -7 -12 -7 3 -18 -7 -26 -21 -7 -14 -18 -25 -24 -25
-6 0 -20 -13 -30 -28 l-19 -27 24 20 c20 16 19 15 -2 -7 -15 -14 -25 -29 -22
-32 4 -3 1 -6 -5 -6 -7 0 -12 -8 -12 -17 0 -9 -10 -27 -22 -40 -19 -20 -20
-25 -8 -33 12 -8 12 -10 1 -10 -7 0 -11 -6 -8 -14 3 -8 2 -16 -2 -18 -5 -2
-12 -14 -16 -27 -5 -18 -4 -22 6 -17 8 4 6 1 -3 -7 -10 -8 -15 -17 -11 -20 3
-4 0 -14 -7 -23 -11 -13 -11 -17 0 -24 11 -7 11 -11 1 -24 -11 -12 -11 -16 -1
-16 10 0 10 -3 0 -15 -9 -11 -9 -15 -1 -15 9 0 9 -5 0 -21 -8 -15 -8 -19 0
-15 11 7 15 -4 12 -36 -1 -10 3 -18 10 -18 7 0 5 -8 -6 -20 -18 -20 -18 -21 1
-14 17 7 18 6 4 -11 -14 -17 -13 -18 2 -12 12 4 15 2 11 -9 -3 -8 1 -14 8 -14
11 0 11 -3 -1 -10 -10 -6 -11 -10 -2 -10 6 0 12 -7 12 -15 0 -8 6 -15 13 -15
8 0 7 -4 -3 -10 -10 -6 -11 -10 -2 -10 6 0 12 -7 12 -15 0 -8 8 -15 18 -15 14
0 15 -2 2 -10 -13 -8 -12 -10 4 -10 11 0 17 -3 13 -6 -3 -3 0 -13 6 -21 36
-44 65 -73 75 -73 6 0 14 -9 17 -20 3 -11 13 -20 21 -20 8 0 14 -4 14 -10 0
-5 7 -6 17 -3 11 4 14 3 9 -5 -4 -7 -2 -12 4 -12 6 0 8 -5 4 -12 -4 -6 -3 -8
4 -4 6 3 13 2 17 -3 3 -6 12 -8 21 -4 8 3 14 2 13 -3 -4 -21 2 -28 11 -14 8
12 10 12 10 -5 0 -17 2 -17 10 -5 5 8 10 10 10 4 0 -7 7 -15 16 -18 8 -3 12
-2 9 4 -3 6 -1 10 4 10 6 0 11 -7 11 -15 0 -9 6 -12 17 -8 12 5 14 3 8 -8 -8
-12 -6 -12 9 0 15 12 19 12 26 1 9 -15 60 -21 60 -7 0 5 7 4 15 -3 12 -10 15
-10 15 1 0 11 2 11 10 -1 7 -11 10 -11 10 -2 0 7 5 10 10 7 6 -4 8 -12 4 -18
-3 -7 0 -5 8 3 7 9 25 14 42 12 15 -2 26 1 23 6 -4 5 0 9 8 9 8 0 12 -5 8 -10
-3 -5 4 -4 16 2 12 7 26 9 31 6 6 -3 10 -1 10 4 0 6 3 10 8 10 21 -4 32 2 26
14 -5 8 -2 8 9 -2 15 -12 17 -11 17 5 0 16 2 17 10 4 8 -13 11 -13 22 -1 11
11 11 13 -1 6 -9 -5 -12 -4 -7 3 4 6 14 8 23 5 13 -5 15 -2 10 13 -7 18 -6 18
7 1 13 -17 14 -16 19 3 3 11 13 20 25 20 23 0 46 25 37 40 -4 6 -3 10 2 9 17
-3 33 1 32 9 -3 19 2 25 11 12 8 -13 10 -12 11 5 1 11 1 23 1 26 -1 4 6 6 16
5 11 -1 17 6 16 21 -1 15 3 20 14 15 11 -4 14 -1 9 12 -5 11 -3 15 5 10 7 -5
9 0 6 14 -4 16 -2 19 10 15 10 -4 13 -2 8 5 -4 7 -2 12 4 12 6 0 9 4 5 9 -3 5
-1 12 5 16 15 9 12 27 -2 20 -7 -4 -6 -1 3 7 9 7 17 18 18 23 2 6 8 9 14 7 7
-1 3 5 -7 13 -18 14 -18 15 -2 15 9 0 15 4 11 9 -3 5 -2 12 2 14 5 3 8 27 8
54 0 31 5 53 15 61 13 11 13 11 0 7 -12 -4 -15 4 -13 45 1 33 -2 50 -10 50 -7
0 -6 4 3 10 8 5 10 10 4 10 -7 0 -15 7 -18 16 -3 8 -2 12 3 9 5 -3 12 -1 16 5
3 5 -1 10 -10 10 -11 0 -15 5 -11 15 3 8 2 15 -3 15 -4 0 -8 7 -9 15 -1 8 -3
22 -4 30 -1 9 -7 14 -15 11 -15 -6 -13 15 2 26 6 4 2 8 -8 8 -10 0 -17 6 -15
13 3 16 -32 68 -42 62 -5 -3 -12 0 -16 6 -4 8 -3 9 4 5 7 -4 12 -2 12 3 0 6
-6 11 -14 11 -7 0 -20 8 -27 18 -13 16 -13 16 6 2 18 -14 19 -14 7 2 -8 10
-22 20 -32 23 -12 4 -17 12 -13 21 4 10 0 12 -11 8 -10 -4 -18 0 -22 11 -4 9
-13 14 -21 11 -8 -3 -11 -2 -8 4 3 5 -9 17 -27 26 -18 9 -36 21 -39 26 -3 5
-9 9 -13 9 -23 -3 -36 0 -31 9 9 14 -8 12 -24 -2 -11 -10 -13 -10 -7 0 5 8 -1
12 -18 12 -14 0 -26 5 -26 11 0 6 -9 9 -20 6 -11 -3 -20 -2 -20 2 0 3 -18 5
-40 3 -27 -3 -40 0 -40 8 0 9 -4 9 -17 -1 -15 -12 -16 -12 -8 1 7 13 6 13 -7
2 -13 -10 -17 -10 -20 0 -3 7 -7 5 -12 -7z m539 -275 c3 -5 1 -10 -4 -10 -6 0
-11 5 -11 10 0 6 2 10 4 10 3 0 8 -4 11 -10z m-755 -294 c0 -3 -4 -8 -10 -11
-5 -3 -10 -1 -10 4 0 6 5 11 10 11 6 0 10 -2 10 -4z m235 -266 c3 -5 1 -10 -4
-10 -6 0 -11 5 -11 10 0 6 2 10 4 10 3 0 8 -4 11 -10z"/>
<path d="M850 3718 c0 -15 -4 -16 -25 -8 -14 5 -25 6 -25 1 0 -5 -9 -7 -20 -4
-11 3 -20 1 -20 -4 0 -6 -12 -8 -27 -5 -18 3 -30 -1 -40 -13 -9 -14 -13 -15
-13 -4 0 12 -2 12 -9 0 -5 -8 -17 -16 -26 -17 -9 -1 -25 -10 -34 -18 -10 -9
-20 -13 -24 -10 -4 4 -4 -3 -2 -16 4 -19 2 -20 -12 -8 -12 9 -15 9 -9 0 4 -7
1 -15 -8 -18 -9 -3 -16 -13 -16 -21 0 -8 -5 -11 -10 -8 -6 4 -10 3 -9 -2 4
-15 -13 -43 -22 -37 -5 3 -9 0 -9 -5 0 -6 6 -11 13 -11 9 0 8 -3 -2 -9 -7 -5
-11 -14 -7 -20 5 -7 1 -9 -9 -5 -11 5 -14 2 -9 -10 4 -10 1 -16 -7 -16 -10 0
-10 -3 -1 -12 9 -9 7 -17 -9 -34 -15 -16 -17 -24 -8 -29 8 -5 10 -4 5 3 -4 7
-2 12 3 12 14 0 14 -17 1 -25 -12 -7 -10 -94 1 -101 5 -3 6 -11 2 -19 -3 -8 0
-15 6 -15 6 0 8 -7 4 -17 -5 -11 -3 -14 6 -8 10 6 11 3 2 -14 -9 -17 -9 -21 1
-19 7 2 12 -3 10 -9 -1 -7 2 -13 7 -13 5 0 11 -9 14 -21 4 -14 10 -18 19 -13
9 5 8 2 -2 -11 -8 -10 -10 -16 -3 -12 7 4 14 -1 18 -12 3 -11 15 -23 26 -26
10 -4 19 -11 19 -16 0 -5 7 -9 16 -9 9 0 12 -5 8 -12 -5 -8 0 -7 11 2 11 9 16
10 11 3 -4 -8 -2 -13 4 -13 6 0 8 -4 5 -10 -3 -6 1 -7 9 -4 9 3 16 1 16 -6 0
-6 4 -9 9 -6 13 8 62 -19 53 -30 -4 -4 1 -2 11 6 16 12 20 12 29 -1 7 -11 11
-11 15 -2 3 9 10 10 23 3 17 -9 51 -7 70 5 6 3 10 2 10 -3 0 -6 9 -8 20 -5 11
3 20 10 20 17 0 6 5 4 10 -4 7 -12 10 -12 10 -1 0 8 6 11 16 7 8 -3 12 -2 9 4
-3 6 3 10 14 10 12 0 21 5 21 12 0 6 3 8 7 5 3 -4 12 1 20 11 10 11 12 12 8 2
-4 -8 2 -5 13 7 11 12 22 19 26 16 3 -4 6 1 6 11 0 11 4 14 12 10 7 -5 9 -2 5
9 -4 11 -2 14 7 11 8 -3 17 0 22 7 5 8 3 10 -7 4 -12 -8 -12 -6 -1 8 8 9 10
22 6 29 -6 10 -3 9 9 -1 15 -12 17 -11 17 3 0 10 4 15 8 12 8 -5 13 17 16 66
1 19 4 24 13 16 9 -7 11 -3 7 16 -3 17 0 26 8 26 9 0 8 3 -2 10 -8 5 -10 10
-5 10 6 0 9 19 6 46 -2 31 1 50 10 56 11 8 10 9 -3 5 -9 -3 -19 1 -22 9 -3 9
-1 12 4 9 6 -3 10 -1 10 4 0 6 -4 11 -10 11 -5 0 -10 13 -10 29 0 16 -5 31
-10 33 -6 2 -12 14 -15 28 -3 13 -11 28 -20 32 -8 5 -15 15 -15 23 0 8 -5 17
-12 21 -7 5 -9 2 -4 -7 4 -8 1 -5 -8 5 -8 10 -12 24 -9 30 4 6 -2 4 -12 -4
-10 -8 -16 -10 -12 -3 9 14 -26 36 -39 25 -5 -4 -2 2 6 12 14 18 13 19 -2 13
-11 -4 -21 0 -27 11 -7 11 -11 12 -11 4 0 -7 -5 -10 -10 -7 -6 4 -8 10 -5 15
3 5 -4 7 -15 5 -11 -2 -20 0 -20 6 0 5 -5 9 -11 9 -5 0 -8 -4 -4 -10 3 -5 -7
-3 -22 5 -19 10 -29 11 -34 3 -4 -6 -11 -4 -18 8 -9 17 -10 17 -11 2z m-227
-83 c-3 -9 -8 -14 -10 -11 -3 3 -2 9 2 15 9 16 15 13 8 -4z m362 -254 c3 -5 2
-12 -3 -15 -5 -3 -9 1 -9 9 0 17 3 19 12 6z m-5 -37 c0 -8 -19 -13 -24 -6 -3
5 1 9 9 9 8 0 15 -2 15 -3z"/>
<path d="M6750 2225 c-9 -11 -17 -12 -31 -4 -13 7 -19 6 -19 -1 0 -6 -5 -8
-12 -4 -8 5 -9 2 -4 -11 5 -15 4 -16 -8 -6 -10 9 -20 9 -34 2 -13 -7 -22 -7
-31 2 -10 9 -11 8 -5 -7 5 -13 4 -17 -4 -12 -6 3 -13 2 -17 -4 -4 -6 -11 -8
-16 -5 -5 4 -9 1 -9 -5 0 -6 -4 -9 -9 -5 -6 3 -15 -4 -22 -16 -8 -16 -13 -18
-19 -9 -6 9 -10 7 -15 -9 -3 -12 -11 -19 -16 -16 -8 6 -13 -8 -10 -27 0 -4 -6
-5 -13 -2 -16 6 -40 -29 -28 -40 3 -4 -2 -4 -12 0 -14 5 -17 4 -12 -4 4 -7 2
-12 -5 -12 -7 0 -9 -3 -6 -7 4 -3 0 -11 -9 -17 -8 -6 -16 -22 -17 -34 -1 -14
-6 -21 -14 -17 -10 3 -11 0 -3 -15 8 -15 8 -18 -3 -14 -10 3 -14 -2 -13 -18 1
-13 -5 -29 -14 -36 -8 -8 -9 -11 -2 -7 6 3 12 2 12 -2 0 -5 -6 -15 -12 -22
-11 -11 -10 -12 2 -6 13 8 13 7 1 -8 -11 -14 -11 -17 0 -18 8 0 5 -4 -6 -9
-11 -5 -15 -9 -8 -9 7 -1 10 -7 7 -14 -2 -7 -6 -29 -7 -49 -2 -27 0 -35 10
-31 16 6 14 -18 -2 -29 -6 -5 -5 -12 3 -20 6 -6 12 -20 12 -30 0 -10 5 -18 11
-18 8 0 8 -4 0 -14 -9 -10 -9 -16 -1 -21 6 -4 9 -13 6 -21 -3 -8 -2 -13 2 -13
20 3 33 -2 27 -11 -3 -5 -1 -10 4 -10 6 0 10 -3 10 -7 -3 -20 2 -34 10 -29 5
3 16 -10 25 -29 9 -19 23 -35 31 -35 8 0 17 -5 21 -12 5 -7 3 -8 -7 -3 -11 7
-11 5 1 -9 10 -13 15 -15 18 -6 3 8 10 4 18 -11 7 -13 13 -18 14 -11 0 7 14
-1 31 -18 27 -25 35 -28 47 -17 13 9 14 9 8 0 -6 -12 4 -16 31 -12 3 0 10 -5
14 -13 4 -8 24 -13 48 -12 23 0 41 -3 41 -8 0 -5 9 -4 20 2 15 8 20 8 20 -1 0
-9 3 -9 14 0 10 8 15 9 18 1 2 -6 11 -8 21 -5 9 4 14 12 10 19 -4 6 1 5 10 -3
12 -9 17 -10 17 -2 0 7 4 10 9 7 5 -4 12 0 14 6 4 11 6 11 6 0 1 -8 6 -9 19
-3 9 5 25 12 35 15 11 4 15 11 11 18 -5 10 -4 10 6 1 10 -9 16 -8 27 3 8 8 23
14 34 14 11 0 17 5 14 10 -3 6 -1 11 4 11 6 1 16 3 21 4 6 1 13 3 18 4 4 1 0
6 -8 11 -13 8 -12 10 5 11 11 1 23 1 27 0 4 0 5 6 2 13 -6 16 29 40 40 28 4
-3 4 1 0 11 -4 10 -1 17 6 17 7 0 10 7 6 15 -3 8 -2 14 2 12 4 -1 9 3 11 8 2
6 12 16 22 23 20 14 27 38 8 27 -6 -4 -5 2 2 13 7 12 17 18 22 15 5 -3 5 3 -1
13 -8 15 -7 24 6 38 13 15 14 18 2 12 -11 -6 -11 -4 1 6 10 8 14 20 9 33 -5
13 -1 25 9 33 14 12 14 13 -4 8 -20 -6 -20 -6 -1 9 11 8 16 15 10 15 -5 0 -10
20 -11 45 0 25 -7 53 -15 62 -11 15 -11 16 6 9 19 -6 19 -6 3 12 -13 15 -14
21 -4 31 10 11 8 11 -13 1 -25 -13 -25 -13 -7 8 14 15 15 22 6 28 -8 5 -10 3
-4 -6 6 -9 4 -11 -4 -6 -7 5 -10 14 -7 22 3 8 1 14 -5 14 -6 0 -8 7 -5 16 3 8
2 12 -4 9 -6 -3 -10 -1 -10 5 0 6 -15 25 -32 42 -18 18 -26 27 -18 22 11 -6
10 -3 -2 7 -9 9 -14 20 -10 24 4 4 1 6 -7 3 -8 -2 -29 11 -48 29 -18 19 -37
31 -43 28 -5 -3 -13 3 -19 12 -6 10 -11 14 -11 8 0 -5 -5 -3 -10 5 -9 13 -11
13 -21 0 -9 -13 -10 -13 -6 2 7 22 -3 30 -20 17 -9 -9 -13 -8 -13 0 0 6 -9 11
-20 11 -11 0 -20 5 -20 11 0 8 -4 9 -13 0 -8 -6 -17 -8 -21 -4 -12 12 -36 12
-36 0 0 -7 -5 -5 -10 3 -5 8 -10 11 -10 7 0 -4 -9 -3 -19 2 -14 8 -22 7 -31
-4z m-20 -279 c0 -2 -7 -7 -16 -10 -8 -3 -12 -2 -9 4 6 10 25 14 25 6z m-60
-26 c0 -5 -5 -10 -11 -10 -5 0 -7 5 -4 10 3 6 8 10 11 10 2 0 4 -4 4 -10z"/>
</g>
</svg>
